<svg preserveAspectRatio="none" width="100%" height="100%" overflow="visible" style="display: block;" viewBox="0 0 42.2087 49.6595" fill="none" xmlns="http://www.w3.org/2000/svg">
<g id="Group 1000006828">
<path id="Vector" fill-rule="evenodd" clip-rule="evenodd" d="M37.7121 31.1157L10.2051 47.0824L14.6184 49.6595L42.2087 33.4967L37.7121 31.1157Z" fill="var(--fill-0, #00315C)"/>
<g id="Half coin">
<path id="Fill 218" fill-rule="evenodd" clip-rule="evenodd" d="M34.8218 26.7481L33.0105 25.6865C31.2402 24.6489 28.7842 24.7871 26.0695 26.3463L27.881 27.4081C30.5955 25.8489 33.0517 25.7107 34.8218 26.7481" fill="var(--fill-0, #FFEDA3)"/>
<path id="Fill 220" fill-rule="evenodd" clip-rule="evenodd" d="M16.2985 43.1837C16.2983 45.1499 16.7379 46.7453 17.5106 47.9086L18.4419 47.3665L18.5414 47.3086C18.5328 47.2816 18.5244 47.2544 18.5162 47.2272C18.5119 47.2138 18.5078 47.2005 18.5039 47.1871C18.4919 47.1473 18.4802 47.1074 18.469 47.067C18.4613 47.04 18.4537 47.0128 18.4466 46.9856C18.4449 46.98 18.4434 46.9744 18.4419 46.9686C18.4227 46.8975 18.4044 46.8259 18.3869 46.7531C18.3852 46.7466 18.3837 46.7399 18.3822 46.7333C18.3733 46.697 18.3649 46.6607 18.3567 46.624C18.3477 46.5845 18.3391 46.5448 18.3307 46.5048C18.3302 46.5029 18.3298 46.5009 18.3294 46.4988C18.3229 46.4679 18.3164 46.4368 18.3104 46.4055C18.3076 46.3921 18.305 46.3787 18.3024 46.3651C18.2955 46.33 18.2889 46.2948 18.2824 46.2591L18.2822 46.2585C18.2757 46.2229 18.2692 46.1872 18.2632 46.1512C18.2611 46.1387 18.2589 46.1261 18.257 46.1134C18.2509 46.0786 18.2453 46.0439 18.2399 46.0089C18.2332 45.9666 18.227 45.9243 18.221 45.8815C18.2158 45.8466 18.211 45.8114 18.2065 45.776C18.2044 45.7606 18.2022 45.7455 18.2005 45.7302C18.1951 45.689 18.1901 45.6477 18.1852 45.606C18.1811 45.5702 18.1772 45.5342 18.1733 45.4981C18.1727 45.4914 18.1718 45.4845 18.1714 45.4776C18.1682 45.4493 18.1654 45.421 18.163 45.3927C18.1613 45.3763 18.1595 45.3599 18.1582 45.3435L18.1578 45.3392C18.1544 45.3027 18.1513 45.266 18.1483 45.2293C18.1479 45.2239 18.1475 45.2185 18.147 45.2129C18.1442 45.1781 18.1416 45.1434 18.1393 45.1084C18.1384 45.0967 18.1376 45.0851 18.1369 45.0732C18.1343 45.0372 18.1322 45.0009 18.1302 44.9646C18.1276 44.9232 18.1255 44.8815 18.1235 44.8394C18.1227 44.8236 18.122 44.8081 18.1214 44.7923C18.1199 44.758 18.1186 44.7235 18.1175 44.6889C18.1169 44.6773 18.1164 44.6656 18.1162 44.6537C18.1149 44.6142 18.1138 44.5745 18.113 44.5348V44.5313C18.1119 44.4849 18.111 44.438 18.1106 44.3912V44.3901C18.11 44.3428 18.1098 44.2953 18.1098 44.2476V44.2452C18.1102 41.4323 19.0109 38.3437 20.4989 35.5193C20.8247 34.9006 21.1791 34.2943 21.5582 33.7066C23.2623 31.0641 25.4695 28.7926 27.8809 27.4076L26.0694 26.3458C20.6739 29.445 16.2991 36.9835 16.2985 43.1837" fill="var(--fill-0, #FFD633)"/>
<path id="Fill 221" fill-rule="evenodd" clip-rule="evenodd" d="M16.2995 43.1842C16.2993 45.1504 16.739 46.7459 17.5116 47.9091L18.4429 47.367L18.5425 47.3091C18.5339 47.2822 18.5255 47.255 18.5173 47.2277C18.513 47.2144 18.5089 47.201 18.505 47.1876C18.4929 47.1479 18.4813 47.1079 18.4701 47.0676C18.4623 47.0406 18.4548 47.0134 18.4476 46.9862C18.4459 46.9805 18.4444 46.9749 18.4429 46.9691C18.4237 46.8981 18.4054 46.8264 18.3879 46.7536C18.3862 46.7472 18.3847 46.7405 18.3832 46.7338C18.3744 46.6975 18.366 46.6612 18.3578 46.6245C18.3487 46.585 18.3401 46.5453 18.3317 46.5054C18.3313 46.5034 18.3308 46.5015 18.3304 46.4993C18.3239 46.4684 18.3175 46.4373 18.3114 46.406C18.3086 46.3927 18.306 46.3793 18.3035 46.3657C18.2966 46.3305 18.2899 46.2953 18.2834 46.2597L18.2832 46.259C18.2767 46.2234 18.2703 46.1878 18.2642 46.1517C18.2621 46.1392 18.2599 46.1267 18.258 46.1139C18.252 46.0792 18.2463 46.0444 18.241 46.0094C18.2343 45.9671 18.228 45.9248 18.222 45.8821C18.2168 45.8471 18.2121 45.8119 18.2076 45.7765C18.2054 45.7612 18.2032 45.746 18.2015 45.7307C18.1961 45.6895 18.1912 45.6482 18.1862 45.6066C18.1821 45.5707 18.1782 45.5347 18.1744 45.4986C18.1737 45.4919 18.1729 45.485 18.1724 45.4781C18.1692 45.4498 18.1664 45.4215 18.164 45.3933C18.1623 45.3769 18.1606 45.3605 18.1593 45.344L18.1588 45.3397C18.1554 45.3032 18.1524 45.2665 18.1494 45.2298C18.1489 45.2244 18.1485 45.219 18.1481 45.2134C18.1453 45.1787 18.1427 45.1439 18.1403 45.1089C18.1394 45.0973 18.1386 45.0856 18.1379 45.0737C18.1354 45.0377 18.1332 45.0014 18.1313 44.9651C18.1287 44.9237 18.1265 44.882 18.1246 44.8399C18.1237 44.8242 18.1231 44.8086 18.1224 44.7929C18.1209 44.7585 18.1196 44.724 18.1185 44.6894C18.1179 44.6778 18.1175 44.6661 18.1172 44.6543C18.116 44.6147 18.1149 44.575 18.114 44.5353V44.5318C18.1129 44.4854 18.1121 44.4386 18.1116 44.3917V44.3906C18.111 44.3434 18.1108 44.2959 18.1108 44.2481V44.2458L16.2995 43.1842" fill="var(--fill-0, #DBAF00)"/>
<path id="Fill 222" fill-rule="evenodd" clip-rule="evenodd" d="M20.4995 35.5194C20.8254 34.9006 21.1797 34.2944 21.5588 33.7067C23.263 31.0641 25.4702 28.7926 27.8815 27.4077L27.8832 27.4068C27.9093 27.3917 27.9354 27.377 27.9614 27.3621C28.0082 27.3358 28.0548 27.3099 28.1013 27.2842C28.1582 27.2531 28.2149 27.2224 28.2716 27.1924C28.2878 27.184 28.3039 27.1754 28.3201 27.1669L28.3216 27.1663C28.3453 27.1538 28.369 27.1415 28.3927 27.1292C28.4169 27.1168 28.441 27.1045 28.4651 27.0922L28.4666 27.0916C28.4959 27.0767 28.5253 27.062 28.5544 27.0475C28.5606 27.0443 28.5669 27.0413 28.5729 27.0383C28.5789 27.0352 28.585 27.0322 28.5912 27.0292C28.6035 27.0231 28.6158 27.0171 28.6281 27.0113L28.6309 27.0098C28.633 27.0087 28.635 27.0078 28.6371 27.0067C28.6404 27.0052 28.6436 27.0035 28.6468 27.0022C28.6744 26.9888 28.702 26.9754 28.7294 26.9625C28.7572 26.9493 28.785 26.9361 28.8128 26.9232L28.8164 26.9215C28.8255 26.9174 28.8345 26.913 28.8434 26.9089C28.849 26.9063 28.8546 26.9038 28.86 26.9014C28.8727 26.8953 28.8854 26.8895 28.8981 26.8839C28.9216 26.8733 28.9449 26.8627 28.9684 26.8522C29.0277 26.8256 29.0871 26.7997 29.1462 26.7746L29.1464 26.7744C29.158 26.7695 29.1699 26.7643 29.1818 26.7595C29.229 26.7397 29.2762 26.72 29.3231 26.701L29.3244 26.7006C29.3699 26.6822 29.4156 26.6641 29.4611 26.6464C29.4641 26.6453 29.4673 26.644 29.4706 26.6427C29.4876 26.6363 29.5046 26.6296 29.5216 26.6231C29.5277 26.6209 29.5337 26.6186 29.5397 26.6162C29.5505 26.6121 29.5613 26.6082 29.5721 26.6041C29.5828 26.6 29.5936 26.5961 29.6042 26.5922C29.6275 26.5836 29.6507 26.5752 29.674 26.5667C29.6975 26.5583 29.721 26.5499 29.7445 26.5417C29.7505 26.5395 29.7563 26.5376 29.7624 26.5357C29.7949 26.5242 29.8275 26.513 29.86 26.502C29.8639 26.5007 29.8676 26.4994 29.8712 26.4981C29.8749 26.4968 29.8788 26.4955 29.8824 26.4942C29.9055 26.4864 29.9286 26.4789 29.9514 26.4713C29.9977 26.4562 30.0439 26.4415 30.09 26.4273C30.1355 26.4132 30.1807 26.3996 30.226 26.3865C30.2372 26.3832 30.2482 26.38 30.2594 26.377C30.276 26.3722 30.2926 26.3675 30.3092 26.3629C30.3135 26.3616 30.318 26.3603 30.3223 26.3593L30.3284 26.3575L30.3318 26.3565C30.3355 26.3554 30.3391 26.3545 30.3426 26.3534C30.346 26.3526 30.3493 26.3517 30.3525 26.3506L30.3531 26.3504C30.3562 26.3495 30.3592 26.3487 30.3622 26.348C30.3749 26.3446 30.3874 26.3413 30.3999 26.3379C30.409 26.3353 30.4182 26.3329 30.4273 26.3305C30.4527 26.3239 30.4779 26.3174 30.5031 26.3109C30.5238 26.3055 30.5445 26.3003 30.565 26.2954C30.5713 26.2936 30.5775 26.2921 30.5838 26.2908C30.6157 26.2828 30.6475 26.2753 30.6794 26.2679C30.6861 26.2664 30.6926 26.2649 30.6993 26.2634C30.7215 26.258 30.7439 26.253 30.7661 26.2483C30.7749 26.2463 30.7838 26.2446 30.7926 26.2427C30.8159 26.2377 30.8392 26.2327 30.8624 26.228C30.8663 26.2271 30.8702 26.2265 30.8741 26.2256C30.8825 26.2237 30.8911 26.222 30.8997 26.2202C30.9215 26.2159 30.9435 26.2116 30.9652 26.2073H30.9659C30.9747 26.2055 30.9838 26.2038 30.9926 26.2021C30.9963 26.2014 30.9999 26.2008 31.0034 26.2001C31.0096 26.1991 31.0157 26.1978 31.0219 26.1967C31.0252 26.196 31.0282 26.1954 31.0314 26.195C31.0463 26.1922 31.0611 26.1896 31.076 26.187C31.0831 26.1857 31.0902 26.1844 31.0971 26.1831C31.1116 26.1807 31.1262 26.1781 31.1407 26.1757C31.1534 26.1736 31.1659 26.1714 31.1786 26.1695C31.1952 26.1669 31.2116 26.1643 31.228 26.1617C31.2465 26.1587 31.265 26.1559 31.2834 26.1533C31.3084 26.1496 31.3331 26.146 31.3581 26.1427C31.3732 26.1406 31.3883 26.1386 31.4034 26.1367C31.4153 26.1352 31.4271 26.1336 31.439 26.1321C31.4549 26.13 31.4711 26.128 31.4872 26.1263C31.4907 26.1259 31.4944 26.1254 31.498 26.125C31.5157 26.1229 31.5336 26.1209 31.5515 26.119L31.5569 26.1183C31.5765 26.1164 31.5961 26.1142 31.6155 26.1123H31.6157C31.6368 26.1101 31.6582 26.1082 31.6793 26.1064C31.6948 26.1049 31.7101 26.1036 31.7256 26.1026C31.7314 26.1019 31.737 26.1015 31.7429 26.101C31.745 26.1008 31.7474 26.1008 31.7495 26.1006L31.753 26.1004C31.756 26.1 31.759 26.0998 31.762 26.0995H31.7631C31.7702 26.0991 31.7771 26.0985 31.784 26.098C31.8092 26.0961 31.8347 26.0944 31.8599 26.0928C31.8631 26.0926 31.8661 26.0924 31.8694 26.0922C31.8972 26.0905 31.925 26.0892 31.9526 26.0879C31.9804 26.0866 32.008 26.0855 32.0353 26.0846C32.0519 26.084 32.0685 26.0836 32.0851 26.0831L32.0883 26.0829C32.1054 26.0825 32.1224 26.0821 32.1394 26.0818C32.1498 26.0816 32.1601 26.0816 32.1702 26.0814H32.1746C32.1793 26.0814 32.184 26.0812 32.1886 26.0812C32.2067 26.081 32.2248 26.081 32.2429 26.081C32.2707 26.081 32.2985 26.0812 32.3263 26.0816C32.3474 26.0818 32.3683 26.0823 32.3894 26.0829H32.3955C32.4043 26.0831 32.4131 26.0833 32.422 26.0836C32.4293 26.0838 32.4366 26.084 32.4437 26.0844C32.4621 26.0849 32.4802 26.0857 32.4983 26.0866C32.5078 26.087 32.5168 26.0872 32.5261 26.0879C32.5409 26.0885 32.556 26.0892 32.5709 26.09C32.5735 26.0903 32.5761 26.0903 32.5787 26.0905C32.5853 26.0909 32.5922 26.0913 32.5989 26.0915C32.6039 26.0918 32.6088 26.0922 32.6138 26.0926C32.6282 26.0935 32.6427 26.0946 32.6571 26.0957C32.6642 26.0959 32.6713 26.0965 32.6782 26.0969C32.686 26.0976 32.694 26.0982 32.7017 26.0989L32.7047 26.0991C32.7194 26.1002 32.7343 26.1015 32.7489 26.1028L32.7494 26.103C32.7548 26.1032 32.7601 26.1036 32.7655 26.1043C32.7696 26.1045 32.7735 26.1049 32.7774 26.1054C32.7813 26.1058 32.7854 26.106 32.7892 26.1064C32.8088 26.1082 32.8285 26.1101 32.8481 26.1123C32.8522 26.1127 32.8563 26.1131 32.8601 26.1136C32.8888 26.1164 32.9175 26.1198 32.9461 26.1235C32.9509 26.1242 32.9558 26.1248 32.9608 26.1254C32.9752 26.1272 32.9897 26.1291 33.0039 26.1311L33.0086 26.1317C33.0162 26.1326 33.0237 26.1336 33.0315 26.1347C33.0599 26.1386 33.0882 26.1427 33.1162 26.1473H33.1168C33.1233 26.1483 33.1296 26.1494 33.136 26.1505C33.1395 26.1511 33.1429 26.1516 33.1464 26.1522C33.1645 26.155 33.1826 26.158 33.2005 26.1613C33.227 26.1658 33.2533 26.1706 33.2796 26.1755C33.2849 26.1764 33.2903 26.1775 33.2957 26.1788C33.3121 26.1818 33.3283 26.185 33.3444 26.1883C33.352 26.1898 33.3595 26.1913 33.3671 26.1928C33.374 26.1943 33.3806 26.1956 33.3875 26.1971C33.3944 26.1986 33.4015 26.2001 33.4087 26.2017C33.4225 26.2047 33.436 26.2077 33.4498 26.2107C33.4524 26.2114 33.4552 26.2118 33.4578 26.2125C33.474 26.2161 33.4903 26.2198 33.5065 26.2239C33.5147 26.2256 33.5229 26.2276 33.5313 26.2297C33.5345 26.2306 33.5378 26.2312 33.541 26.2321L33.5453 26.2332C33.5677 26.2386 33.5901 26.2442 33.6125 26.25C33.6179 26.2515 33.6233 26.2528 33.6287 26.2543C33.6317 26.2552 33.6347 26.2558 33.6378 26.2567C33.6563 26.2617 33.6746 26.2664 33.6929 26.2716C33.7197 26.2789 33.7464 26.2867 33.7729 26.2945C33.7763 26.2956 33.78 26.2967 33.7835 26.2977L33.7852 26.2982C33.8076 26.3049 33.83 26.3115 33.8522 26.3187C33.8785 26.3269 33.9048 26.3355 33.9309 26.3441C33.957 26.3528 33.983 26.3619 34.0089 26.3709C34.0218 26.3755 34.0348 26.38 34.0477 26.3847C34.0514 26.386 34.055 26.3873 34.0587 26.3888C34.0645 26.391 34.0705 26.3932 34.0766 26.3955C34.0798 26.3966 34.083 26.3977 34.0863 26.399C34.0912 26.4007 34.0962 26.4027 34.1011 26.4046C34.1147 26.4096 34.1283 26.4147 34.1417 26.4199C34.149 26.4227 34.1565 26.4258 34.1639 26.4286C34.174 26.4327 34.1841 26.4366 34.194 26.4407C34.1996 26.4428 34.2052 26.445 34.2108 26.4473C34.2201 26.451 34.2296 26.4549 34.2389 26.4588C34.2589 26.467 34.279 26.4754 34.2988 26.4841C34.304 26.486 34.3091 26.4884 34.3143 26.4905L34.3156 26.491C34.3367 26.5 34.3578 26.5093 34.379 26.519C34.3846 26.5216 34.3902 26.5242 34.3958 26.5266C34.4132 26.5344 34.4309 26.5426 34.4484 26.551C34.4505 26.5521 34.4525 26.5529 34.4546 26.554C34.4574 26.5553 34.4602 26.5566 34.463 26.5579C34.4852 26.5683 34.5072 26.5788 34.5292 26.5898L34.5294 26.5901L34.5311 26.5909C34.5339 26.5922 34.5365 26.5935 34.5391 26.5948L34.5415 26.5959C34.5456 26.598 34.5497 26.6 34.5538 26.6021L34.5563 26.6034C34.574 26.6123 34.5915 26.6211 34.6089 26.6302C34.6223 26.6371 34.6357 26.644 34.649 26.6514C34.6598 26.6568 34.6704 26.6626 34.6809 26.6682L34.6822 26.6689C34.7022 26.6797 34.7219 26.6904 34.7417 26.7015L34.7456 26.7036L34.7466 26.7043L34.7479 26.7051C34.7583 26.711 34.7684 26.7168 34.7785 26.7226C34.7859 26.7267 34.7932 26.731 34.8005 26.7351C34.8027 26.7364 34.8048 26.7377 34.807 26.739C35.0003 26.8513 35.1855 26.9774 35.3618 27.1173C35.3887 27.1384 35.4152 27.16 35.4415 27.1818C35.4678 27.2036 35.4939 27.2259 35.52 27.2483C35.5374 27.2632 35.5544 27.2783 35.5717 27.2937C35.5973 27.3166 35.6228 27.3397 35.6482 27.3632C35.6734 27.3867 35.6984 27.4105 35.7232 27.4346C36.9334 28.6087 37.6494 30.514 37.6489 33.0227C37.6487 34.04 37.5308 35.0932 37.3101 36.1569C37.2942 36.2336 37.2778 36.3106 37.2605 36.3873C37.2586 36.3966 37.2567 36.4058 37.2545 36.4153L37.2543 36.4156L34.5318 38.0002C34.5509 37.9374 34.5695 37.8746 34.5874 37.8118C34.5904 37.8016 34.5932 37.7913 34.596 37.7809C34.5969 37.7779 34.5977 37.7748 34.5986 37.7718L34.6003 37.7666C34.6012 37.7636 34.602 37.7604 34.6029 37.7574C34.6061 37.7464 34.6091 37.7351 34.6124 37.7241C34.6141 37.7176 34.6158 37.7114 34.6175 37.7049L34.6182 37.703C34.6251 37.6783 34.632 37.6537 34.6385 37.6289C34.7051 37.3852 34.7648 37.1416 34.8169 36.899C34.8305 36.8368 34.8434 36.7746 34.8557 36.7124C34.8721 36.6308 34.8876 36.5494 34.9023 36.4682L34.9025 36.4676C34.9044 36.4568 34.9064 36.446 34.9081 36.4354C34.9085 36.433 34.9089 36.4309 34.9094 36.4285L34.9102 36.4238L34.9111 36.419C34.9122 36.4132 34.913 36.4076 34.9141 36.402C34.9169 36.3868 34.9195 36.3717 34.9221 36.3568V36.3566C34.9283 36.3195 34.9346 36.2823 34.9406 36.2454V36.2452C34.9464 36.2081 34.9525 36.1709 34.9581 36.134V36.1334C34.962 36.1073 34.9661 36.0811 34.9697 36.055C34.9732 36.0319 34.9764 36.0088 34.9796 35.9857C34.9801 35.9827 34.9805 35.9794 34.9809 35.9764C34.9811 35.974 34.9816 35.9719 34.9818 35.9697L34.9824 35.965C34.9861 35.9397 34.9893 35.9145 34.9928 35.8892C34.9939 35.8816 34.9947 35.8741 34.9958 35.8665C34.9962 35.8626 34.9967 35.8588 34.9973 35.8549C35.0003 35.8309 35.0033 35.8069 35.0061 35.7828C35.0066 35.7802 35.007 35.7776 35.0072 35.775C35.0079 35.7707 35.0083 35.7664 35.0087 35.7618C35.01 35.7525 35.0111 35.7433 35.0122 35.7338L35.0128 35.7284C35.0135 35.7227 35.0141 35.7171 35.0148 35.7115C35.0154 35.7059 35.0161 35.7003 35.0167 35.6947C35.0169 35.6921 35.0173 35.6895 35.0176 35.6869C35.0186 35.6789 35.0195 35.6709 35.0204 35.6629C35.0221 35.6476 35.0238 35.6325 35.0253 35.6172L35.0258 35.6131C35.027 35.6021 35.0283 35.5913 35.0294 35.5802C35.0305 35.5697 35.0316 35.5589 35.0327 35.5483L35.0333 35.5425C35.0337 35.5375 35.0342 35.5325 35.0346 35.5278C35.0359 35.5159 35.037 35.504 35.038 35.4924C35.0391 35.4822 35.04 35.4721 35.0411 35.4617C35.0439 35.4311 35.0467 35.4006 35.0492 35.37C35.0497 35.3639 35.0503 35.3581 35.0508 35.3523C35.0568 35.2799 35.0622 35.2078 35.0667 35.1359C35.0684 35.1089 35.0699 35.082 35.0714 35.055C35.0719 35.0461 35.0725 35.0371 35.073 35.0282C35.0732 35.0243 35.0734 35.0202 35.0736 35.0163L35.0738 35.0109C35.074 35.007 35.0742 35.0034 35.0745 34.9995L35.0747 34.9937L35.0751 34.988L35.0758 34.9764V34.9725C35.076 34.966 35.0764 34.9598 35.0766 34.9535C35.0768 34.9468 35.0773 34.9401 35.0775 34.9332C35.0779 34.9211 35.0783 34.909 35.079 34.8969C35.079 34.8946 35.0792 34.8922 35.0792 34.8898C35.0794 34.8864 35.0794 34.8829 35.0796 34.8794L35.0803 34.8633C35.0807 34.8522 35.0811 34.8412 35.0816 34.8302C35.0818 34.8229 35.082 34.8155 35.0822 34.8084C35.0822 34.8065 35.0824 34.8045 35.0824 34.8026C35.0827 34.7996 35.0827 34.7965 35.0827 34.7937L35.0829 34.7914V34.7868L35.0831 34.7823V34.7793C35.0833 34.7765 35.0833 34.7739 35.0833 34.7713C35.0837 34.7624 35.0839 34.7538 35.0839 34.7452C35.0842 34.7411 35.0842 34.7367 35.0844 34.7326C35.0844 34.7294 35.0846 34.7259 35.0846 34.7227C35.0846 34.7197 35.0848 34.7169 35.0848 34.7139C35.0848 34.7106 35.0848 34.7076 35.085 34.7044V34.7005C35.0852 34.6933 35.0852 34.6864 35.0855 34.6793V34.6778C35.0857 34.6754 35.0857 34.673 35.0857 34.6709V34.6679C35.0859 34.6635 35.0859 34.6592 35.0861 34.6549V34.6491C35.0863 34.6428 35.0863 34.6366 35.0863 34.6303C35.0865 34.6255 35.0865 34.621 35.0865 34.6165V34.6089C35.0865 34.6037 35.0867 34.5986 35.0867 34.5936V34.5832L35.087 34.5828V34.567C35.0872 34.5547 35.0872 34.5426 35.0872 34.5306C35.0874 34.5182 35.0874 34.5062 35.0874 34.4941C35.0874 34.4718 35.0874 34.4496 35.0872 34.4274V34.4125C35.0867 34.3637 35.0859 34.3151 35.0848 34.2672V34.2669C35.0835 34.2173 35.082 34.1681 35.0801 34.1193V34.1191C35.079 34.0947 35.0779 34.0703 35.0768 34.0461V34.0459C35.076 34.0286 35.0749 34.0113 35.074 33.9943C35.0736 33.9871 35.0734 33.9802 35.073 33.9731C35.0725 33.9679 35.0723 33.9625 35.0721 33.9573C35.0717 33.9526 35.0714 33.9478 35.0712 33.9431C35.071 33.9412 35.071 33.939 35.0708 33.9371C35.0697 33.9189 35.0686 33.9008 35.0673 33.8829C35.0663 33.8649 35.065 33.847 35.0637 33.8293C35.062 33.8056 35.06 33.7818 35.0581 33.7583V33.7581C35.0561 33.7343 35.054 33.7108 35.0518 33.6875C35.0497 33.6646 35.0475 33.6417 35.0454 33.6188L35.0449 33.6156C35.0432 33.5977 35.0413 33.5797 35.0395 33.562C35.0389 33.5573 35.0385 33.5525 35.038 33.548C35.0372 33.54 35.0363 33.5318 35.0352 33.5238C35.035 33.5219 35.0348 33.5199 35.0346 33.518C35.0305 33.4817 35.0262 33.4459 35.0217 33.4103V33.41C35.0191 33.3885 35.0161 33.3671 35.0133 33.3455C35.0128 33.3423 35.0124 33.3392 35.012 33.3362C35.0092 33.3157 35.0064 33.2952 35.0033 33.2747V33.2745C34.9969 33.2302 34.99 33.1862 34.9829 33.1425L34.9822 33.1389C34.979 33.1184 34.9753 33.0979 34.9719 33.0773V33.0771L34.9714 33.0754C34.971 33.0726 34.9706 33.07 34.9701 33.0676C34.9669 33.0484 34.9635 33.0294 34.96 33.0102L34.9598 33.01V33.0096C34.9557 32.9878 34.9516 32.9662 34.9475 32.9448C34.9434 32.9234 34.9391 32.902 34.9348 32.8807V32.8804C34.9305 32.8589 34.926 32.8377 34.9214 32.8165C34.9169 32.7952 34.9122 32.774 34.9076 32.7533C34.9033 32.7345 34.899 32.7155 34.8947 32.6967L34.8932 32.6909C34.8928 32.6887 34.8923 32.6868 34.8919 32.6851C34.8882 32.6691 34.8844 32.6533 34.8805 32.6378C34.8697 32.5933 34.8585 32.5493 34.8471 32.5059C34.8462 32.5022 34.8451 32.4985 34.8441 32.4949L34.8428 32.4897C34.8402 32.4806 34.8378 32.4718 34.8354 32.4627C34.8337 32.4569 34.8322 32.451 34.8305 32.4452C34.829 32.4398 34.8275 32.4346 34.826 32.4294C34.8219 32.4148 34.8178 32.3999 34.8135 32.3852C34.802 32.3452 34.79 32.3055 34.7779 32.2664C34.7723 32.2487 34.7667 32.231 34.7611 32.2135C34.7542 32.1924 34.7473 32.1712 34.7404 32.1505V32.1503C34.7372 32.1408 34.7339 32.1313 34.7305 32.1218L34.729 32.117L34.7285 32.1157L34.7272 32.1123L34.7264 32.1095L34.726 32.108C34.7251 32.1056 34.7244 32.1034 34.7236 32.1013C34.7225 32.0985 34.7216 32.0959 34.7208 32.0933L34.7204 32.0922C34.7188 32.0877 34.7173 32.0831 34.7158 32.0786C34.7137 32.073 34.7117 32.0672 34.7096 32.0613C34.7076 32.0562 34.7059 32.0508 34.704 32.0456C34.701 32.0374 34.6982 32.0292 34.6951 32.0212C34.6925 32.0143 34.6902 32.0076 34.6876 32.0007C34.6859 31.9955 34.6839 31.9903 34.682 31.9853L34.68 31.9804V31.9802C34.6781 31.9748 34.6762 31.9696 34.674 31.9642C34.6691 31.951 34.6641 31.9378 34.6591 31.9247C34.6578 31.921 34.6563 31.9173 34.6548 31.9137C34.6462 31.8914 34.6376 31.8694 34.6285 31.8474C34.6272 31.8439 34.6257 31.8405 34.6244 31.837C34.6214 31.8295 34.6184 31.8221 34.6154 31.815V31.8148C34.6081 31.7969 34.6005 31.7789 34.593 31.7612V31.761C34.5854 31.7431 34.5777 31.7254 34.5699 31.7077C34.5688 31.7053 34.5678 31.7029 34.5667 31.7006C34.5658 31.6984 34.565 31.6963 34.5639 31.6943C34.5583 31.6814 34.5525 31.6682 34.5464 31.6552C34.54 31.6408 34.5335 31.6263 34.5268 31.6123C34.5253 31.6088 34.5238 31.6056 34.5223 31.6026C34.5126 31.5818 34.5029 31.5611 34.493 31.5408C34.4919 31.5386 34.4908 31.5363 34.4895 31.5341C34.4884 31.5317 34.4874 31.5294 34.4863 31.5272C34.4852 31.525 34.4841 31.5227 34.4831 31.5203L34.482 31.5181C34.479 31.5119 34.4759 31.5056 34.4729 31.4996V31.4994C34.4706 31.4948 34.4684 31.4905 34.466 31.486C34.4637 31.4814 34.4615 31.4771 34.4591 31.4726L34.4576 31.4693C34.4542 31.4624 34.4507 31.4557 34.4473 31.449C34.4453 31.4452 34.4434 31.4413 34.4412 31.4374C34.427 31.4093 34.4124 31.3813 34.3973 31.3536C34.3945 31.3487 34.3919 31.3439 34.3895 31.3394C34.3843 31.3301 34.3794 31.3208 34.3742 31.3117C34.3723 31.3081 34.3701 31.3044 34.3682 31.3007C34.3634 31.2923 34.3589 31.2841 34.3542 31.2761C34.3496 31.2679 34.3451 31.2601 34.3408 31.2524C34.3315 31.2362 34.3223 31.2204 34.313 31.2049L34.3128 31.2042C34.3055 31.1921 34.2984 31.18 34.291 31.168C34.2889 31.1645 34.2869 31.161 34.2848 31.1576V31.1574C34.28 31.1494 34.2751 31.1414 34.2701 31.1336L34.2677 31.1297C34.2649 31.1254 34.2624 31.1211 34.2598 31.117C34.2585 31.1151 34.2574 31.1131 34.2561 31.1112C34.2464 31.0958 34.2367 31.0805 34.227 31.0652C34.2171 31.0499 34.2072 31.0347 34.1973 31.0198V31.0196C34.1934 31.0136 34.1895 31.0078 34.1854 31.0019C34.1837 30.9993 34.182 30.9967 34.1802 30.9944C34.1705 30.9799 34.1608 30.9654 34.1509 30.9512C34.146 30.9441 34.1412 30.9372 34.1367 30.9305C34.1264 30.9158 34.116 30.9013 34.1057 30.8871V30.8869C34.1005 30.8797 34.0953 30.8724 34.0897 30.8653C34.0845 30.8579 34.0794 30.851 34.0742 30.8441C34.069 30.837 34.0639 30.8299 34.0585 30.8229L34.0552 30.8186L34.0548 30.8182C34.0507 30.8126 34.0466 30.8072 34.0425 30.8016V30.8014C34.0317 30.7875 34.021 30.7737 34.0102 30.7599V30.7597C33.9962 30.7418 33.982 30.7238 33.9677 30.7066L33.9643 30.7023C33.9576 30.6938 33.9509 30.6859 33.9442 30.6779C33.941 30.6738 33.9376 30.6697 33.9341 30.6656L33.9324 30.6634L33.9289 30.6593L33.9281 30.6582C33.9253 30.655 33.9225 30.6517 33.9197 30.6483L33.9164 30.6446C33.9031 30.6286 33.8899 30.6133 33.8766 30.598C33.8658 30.5857 33.855 30.5736 33.8442 30.5617L33.8421 30.5593L33.8401 30.5572C33.8322 30.5481 33.8242 30.5393 33.8162 30.5306C33.8016 30.5146 33.7869 30.4989 33.772 30.4833C33.7602 30.4706 33.7483 30.4583 33.7363 30.4462V30.446L33.7341 30.444C33.7315 30.4415 33.7291 30.4389 33.7266 30.4363C33.7227 30.4324 33.7188 30.4285 33.7149 30.4246C33.7102 30.4194 33.705 30.4145 33.7001 30.4097C33.6962 30.4056 33.6921 30.4013 33.6878 30.3976C33.6822 30.392 33.6766 30.3864 33.671 30.381C33.6563 30.3665 33.6416 30.3523 33.6266 30.3385C33.6222 30.3342 33.6177 30.3301 33.6132 30.3262C33.6031 30.3164 33.5929 30.3072 33.5828 30.2981C33.5781 30.2936 33.5733 30.289 33.5684 30.2847C33.5647 30.2813 33.5608 30.2778 33.5569 30.2746C33.5248 30.2459 33.4923 30.2178 33.4593 30.1906L33.4541 30.1863C33.4434 30.1772 33.4322 30.1683 33.4212 30.1595C33.413 30.1528 33.4048 30.1461 33.3964 30.1396C33.391 30.1353 33.3856 30.1312 33.3802 30.1269C33.3725 30.1206 33.3645 30.1146 33.3567 30.1085C33.3541 30.1066 33.3513 30.1044 33.3487 30.1025C33.3317 30.0893 33.3145 30.0764 33.297 30.0638C33.2623 30.0382 33.2272 30.0135 33.1916 29.9894C33.1808 29.982 33.1699 29.9747 33.1589 29.9676C33.1468 29.9594 33.1345 29.9514 33.1222 29.9436L33.1183 29.941C33.1015 29.9302 33.0847 29.9196 33.0677 29.9091C33.0392 29.8916 33.0106 29.8743 32.9817 29.8577C32.9711 29.8516 32.9606 29.8456 32.9498 29.8395L32.9472 29.838C32.9326 29.8296 32.9177 29.8214 32.9026 29.8134C32.8985 29.811 32.8942 29.8089 32.8899 29.8067C32.8867 29.805 32.8836 29.8033 32.8804 29.8015C32.8782 29.8005 32.8763 29.7994 32.8742 29.7983C32.8724 29.7972 32.8705 29.7961 32.8685 29.7953C32.8657 29.7935 32.8627 29.792 32.8597 29.7905C32.8539 29.7875 32.8479 29.7843 32.8418 29.7812C32.8239 29.772 32.806 29.7629 32.7882 29.754C32.7741 29.7469 32.7597 29.74 32.7455 29.7333C32.7319 29.7266 32.7183 29.7204 32.7047 29.7141C32.6987 29.7113 32.6927 29.7085 32.6866 29.7057C32.6808 29.7031 32.6752 29.7005 32.6694 29.6979C32.6388 29.6841 32.608 29.6707 32.5769 29.658C32.5683 29.6545 32.5599 29.6508 32.5513 29.6476C32.5491 29.6465 32.547 29.6457 32.5446 29.6448C32.5399 29.6428 32.5351 29.6409 32.5302 29.639C32.5244 29.6366 32.5183 29.6342 32.5123 29.6318C32.4994 29.6267 32.486 29.6217 32.4728 29.6167L32.4709 29.6161C32.4614 29.6124 32.4519 29.609 32.4425 29.6055L32.4416 29.6051C32.4269 29.5997 32.4121 29.5943 32.397 29.5891L32.3879 29.5859C32.372 29.5802 32.356 29.5748 32.3399 29.5694C32.3209 29.5632 32.3017 29.5569 32.2823 29.5509C32.273 29.5481 32.2638 29.545 32.2545 29.5422C32.2483 29.5403 32.242 29.5384 32.2358 29.5366L32.2343 29.5362C32.231 29.5351 32.2276 29.534 32.2243 29.5332L32.2228 29.5327C32.2082 29.5284 32.1935 29.5241 32.1786 29.52L32.1758 29.5191C32.1653 29.5161 32.1549 29.5133 32.1444 29.5105C32.1284 29.5062 32.1123 29.5019 32.0963 29.4978C32.0927 29.4967 32.089 29.4958 32.0851 29.495C32.0717 29.4915 32.0584 29.4883 32.045 29.485L32.0448 29.4848H32.0446C32.034 29.4822 32.0235 29.4798 32.0127 29.4773C32.0067 29.476 32.0006 29.4744 31.9944 29.4729C31.9773 29.4691 31.9599 29.4654 31.9424 29.4617C31.9319 29.4593 31.9211 29.4572 31.9103 29.455L31.9062 29.4542C31.895 29.4518 31.8836 29.4496 31.8722 29.4475C31.8681 29.4466 31.864 29.4457 31.8597 29.4451C31.8567 29.4444 31.8536 29.4438 31.8504 29.4434C31.8338 29.4401 31.8172 29.4371 31.8006 29.4343C31.7853 29.4317 31.77 29.4291 31.7547 29.4267C31.7439 29.425 31.7332 29.4233 31.7222 29.4216C31.7097 29.4196 31.6972 29.4179 31.6844 29.4159C31.675 29.4146 31.6655 29.4134 31.6558 29.4121L31.6506 29.4114C31.6448 29.4105 31.639 29.4097 31.6332 29.409C31.6245 29.408 31.6157 29.4069 31.6069 29.4058C31.5877 29.4034 31.5683 29.401 31.5489 29.3991C31.5342 29.3974 31.5196 29.3959 31.5047 29.3946L31.5023 29.3944L31.4997 29.3941C31.4913 29.3933 31.4827 29.3926 31.4743 29.3918C31.4347 29.3881 31.395 29.3851 31.3549 29.3829C31.3528 29.3827 31.3508 29.3827 31.3487 29.3825C31.3295 29.3812 31.3101 29.3803 31.2907 29.3795C31.2709 29.3784 31.2508 29.3777 31.2308 29.3771C31.2271 29.3769 31.2234 29.3769 31.2196 29.3766C31.2075 29.3764 31.1952 29.376 31.1829 29.376H31.1799L31.1747 29.3758L31.1708 29.3756H31.1655C31.1596 29.3754 31.154 29.3754 31.1482 29.3754C31.126 29.3751 31.1038 29.3749 31.0814 29.3749H31.0758L31.0756 29.3751H31.0754V29.3749H31.0752L31.0749 29.3751L31.0747 29.3749H31.0732V29.3751H31.073L31.0728 29.3749L31.0726 29.3751V29.3749H31.0706L31.0704 29.3751L31.0702 29.3749L31.07 29.3751H31.0691C31.0575 29.3751 31.0456 29.3751 31.034 29.3754C31.0191 29.3756 31.0042 29.3758 30.9894 29.3762C30.9788 29.3764 30.9683 29.3766 30.9577 29.3771C30.9267 29.3779 30.8952 29.3792 30.8637 29.3807L30.8594 29.381H30.8581L30.8553 29.3812L30.8504 29.3814L30.848 29.3816C30.84 29.382 30.8318 29.3825 30.8234 29.3829C30.8152 29.3833 30.807 29.3838 30.7988 29.3844C30.7892 29.3851 30.7792 29.3857 30.7693 29.3864C30.7594 29.387 30.7495 29.3877 30.7396 29.3885C30.7299 29.3894 30.7202 29.39 30.7105 29.3909L30.7075 29.3911H30.7068C30.7023 29.3915 30.6978 29.3918 30.6932 29.3922C30.6894 29.3926 30.6853 29.3928 30.6814 29.3933L30.6797 29.3935L30.6773 29.3937C30.6719 29.3941 30.6663 29.3946 30.6607 29.3952C30.6471 29.3963 30.6335 29.3976 30.6197 29.3991C30.6075 29.4002 30.5954 29.4015 30.5831 29.403C30.5728 29.4041 30.5624 29.4051 30.5519 29.4064C30.5417 29.4075 30.5314 29.4088 30.521 29.4099C30.5189 29.4103 30.5165 29.4105 30.5141 29.4108C30.5055 29.4118 30.4969 29.4129 30.4883 29.414C30.4704 29.4162 30.4525 29.4185 30.4344 29.4211C30.4206 29.4231 30.4066 29.425 30.3928 29.4272C30.3906 29.4274 30.3885 29.4276 30.3863 29.428C30.3809 29.4289 30.3756 29.4295 30.3702 29.4304C30.3531 29.433 30.3359 29.4356 30.3187 29.4384C30.2954 29.4421 30.2719 29.446 30.2484 29.4501C30.2221 29.4548 30.1958 29.4596 30.1695 29.4645C30.1288 29.4721 30.088 29.4803 30.0469 29.4891C30.0169 29.4954 29.9867 29.5019 29.9564 29.509L29.9553 29.5092C29.935 29.5137 29.9148 29.5185 29.8945 29.5235C29.8768 29.5276 29.8592 29.5319 29.8413 29.5364C29.8285 29.5397 29.8158 29.5429 29.8029 29.5461C29.7919 29.5489 29.7809 29.5517 29.7699 29.5545C29.7656 29.5556 29.7613 29.5569 29.757 29.558C29.7404 29.5623 29.7238 29.5669 29.7072 29.5714C29.6947 29.5748 29.6824 29.5783 29.6699 29.5818C29.6576 29.5852 29.6451 29.5887 29.6326 29.5923H29.6324C29.6076 29.5995 29.5826 29.6068 29.5576 29.6144C29.5188 29.6258 29.4798 29.6379 29.4408 29.6506C29.4337 29.6528 29.4268 29.6552 29.4197 29.6573C29.4126 29.6595 29.4055 29.6618 29.3984 29.6642C29.3843 29.6688 29.3701 29.6735 29.3559 29.6783C29.3389 29.6839 29.3218 29.6897 29.3048 29.6955C29.302 29.6966 29.299 29.6975 29.2962 29.6986C29.2731 29.7065 29.2501 29.7145 29.2268 29.7229C29.2244 29.7236 29.2221 29.7245 29.2195 29.7255C29.2171 29.7262 29.2149 29.727 29.2126 29.7279C29.2059 29.7303 29.1994 29.7327 29.1927 29.735C29.1781 29.7404 29.1636 29.7456 29.149 29.751C29.1449 29.7525 29.141 29.754 29.1369 29.7555C29.1238 29.7605 29.1106 29.7653 29.0975 29.7704C29.0807 29.7767 29.0641 29.783 29.0473 29.7897C29.0345 29.7946 29.0216 29.7996 29.0089 29.8046C28.9845 29.8141 28.96 29.8238 28.9356 29.8337C28.905 29.8462 28.8742 29.8587 28.8436 29.8717L28.838 29.8741C28.8132 29.8844 28.7886 29.895 28.7638 29.9058C28.7518 29.911 28.7397 29.9162 28.7276 29.9216C28.7205 29.9246 28.7136 29.9278 28.7065 29.9309C28.699 29.9343 28.6912 29.9378 28.6837 29.941C28.6302 29.965 28.5766 29.9896 28.5227 30.0151C28.4882 30.0312 28.4535 30.0479 28.4188 30.0651L28.4169 30.066C28.3951 30.0768 28.3733 30.0876 28.3513 30.0984C28.3483 30.0999 28.3451 30.1016 28.3418 30.1031C28.3343 30.1068 28.3265 30.1107 28.319 30.1146C28.3162 30.1161 28.3134 30.1176 28.3104 30.1189C28.3022 30.1232 28.294 30.1273 28.2858 30.1316C28.2806 30.1342 28.2752 30.1368 28.2701 30.1396C28.2578 30.1459 28.2453 30.1524 28.2328 30.1588C28.2061 30.1727 28.1791 30.1869 28.1522 30.2012C28.1431 30.2059 28.1343 30.2107 28.1252 30.2156C28.1192 30.2189 28.113 30.2221 28.1069 30.2253C28.102 30.2279 28.097 30.2307 28.0921 30.2333C28.0584 30.2515 28.0248 30.27 27.9912 30.2888L27.989 30.2899C27.9537 30.3095 27.9186 30.3294 27.8832 30.3497V30.3499L27.8811 30.351C23.9061 32.6341 20.6726 38.2066 20.6719 42.7742V42.7768C20.6719 42.8115 20.6721 42.8463 20.6726 42.8808C20.6728 42.9164 20.6734 42.9519 20.6743 42.9868C20.6749 43.0164 20.6758 43.046 20.6766 43.0754C20.6771 43.0881 20.6775 43.1008 20.6779 43.1136C20.6788 43.1384 20.6799 43.163 20.681 43.1876C20.6812 43.1909 20.6812 43.1941 20.6814 43.1971C20.6827 43.2269 20.6842 43.2567 20.6859 43.2863C20.6874 43.3133 20.6889 43.3403 20.6909 43.367C20.6924 43.391 20.6939 43.415 20.6958 43.4387C20.6973 43.4588 20.6988 43.4789 20.7004 43.4989C20.7025 43.5261 20.7049 43.5533 20.7075 43.5806C20.7083 43.5909 20.7094 43.6015 20.7105 43.6119C20.7129 43.6388 20.7157 43.6658 20.7185 43.6928C20.7215 43.723 20.7249 43.7533 20.7286 43.7833C20.7316 43.8101 20.7348 43.8368 20.7383 43.8632C20.74 43.877 20.7417 43.8908 20.7437 43.9044C20.7461 43.9232 20.7486 43.942 20.7514 43.9605C20.756 43.994 20.7609 44.0272 20.7661 44.0605C20.7682 44.0752 20.7706 44.0901 20.7732 44.1048C20.7756 44.1205 20.7782 44.1363 20.781 44.1518C20.7907 44.211 20.8012 44.2695 20.8126 44.3271C20.8154 44.3425 20.8185 44.3578 20.8217 44.3729C20.8239 44.3848 20.8264 44.3969 20.829 44.4087C20.8318 44.423 20.8348 44.4372 20.8379 44.4513C20.8631 44.5694 20.8911 44.6849 20.9219 44.7973C20.9282 44.8207 20.9346 44.8438 20.9413 44.8669C20.9657 44.9521 20.9915 45.0357 21.0189 45.1175C21.028 45.1443 21.037 45.1711 21.0465 45.1974C21.0545 45.2203 21.0627 45.243 21.0711 45.2656C21.089 45.3146 21.1075 45.363 21.1269 45.4107C21.1314 45.4222 21.1359 45.4336 21.1407 45.4448C21.1564 45.4839 21.1728 45.5223 21.1896 45.5603C21.1965 45.5761 21.2034 45.5916 21.2103 45.6072C21.228 45.6465 21.2461 45.6853 21.2646 45.7235L20.6049 46.1078L18.5421 47.3087C18.5335 47.2817 18.525 47.2545 18.5169 47.2273C18.5125 47.2139 18.5085 47.2005 18.5046 47.1871C18.4925 47.1474 18.4809 47.1075 18.4697 47.0671C18.4619 47.0401 18.4544 47.0129 18.4472 46.9857C18.4455 46.9801 18.444 46.9745 18.4425 46.9686C18.4233 46.8976 18.405 46.8259 18.3875 46.7532C18.3858 46.7467 18.3843 46.74 18.3828 46.7333C18.374 46.697 18.3656 46.6608 18.3574 46.6241C18.3483 46.5845 18.3397 46.5448 18.3313 46.5049C18.3309 46.5029 18.3304 46.501 18.33 46.4988C18.3235 46.468 18.3171 46.4369 18.311 46.4056C18.3082 46.3922 18.3056 46.3786 18.3031 46.3652C18.2962 46.33 18.2895 46.2948 18.283 46.2592L18.2828 46.2585C18.2763 46.2229 18.2699 46.1873 18.2638 46.1512C18.2617 46.1387 18.2595 46.1262 18.2576 46.1135C18.2515 46.0787 18.2459 46.0439 18.2406 46.009C18.2339 45.9667 18.2276 45.9243 18.2216 45.8816C18.2164 45.8466 18.2117 45.8114 18.2071 45.776C18.205 45.7609 18.2028 45.7456 18.2011 45.7302C18.1957 45.689 18.1908 45.6478 18.1858 45.6061C18.1817 45.5703 18.1778 45.5342 18.174 45.4982C18.1733 45.4915 18.1724 45.4846 18.172 45.4776C18.1688 45.4494 18.166 45.4211 18.1636 45.3928C18.1619 45.3764 18.1602 45.36 18.1589 45.3436L18.1584 45.3393C18.155 45.3028 18.152 45.2661 18.149 45.2294C18.1485 45.224 18.1481 45.2186 18.1477 45.213C18.1449 45.1782 18.1423 45.1434 18.1399 45.1085C18.139 45.0968 18.1382 45.0849 18.1375 45.0733C18.1349 45.0372 18.1328 45.0009 18.1309 44.9647C18.1283 44.9232 18.1261 44.8815 18.1242 44.8394C18.1233 44.8239 18.1227 44.8081 18.122 44.7924C18.1205 44.7581 18.1192 44.7235 18.1181 44.689C18.1175 44.6773 18.1171 44.6657 18.1168 44.6538C18.1155 44.6143 18.1145 44.5745 18.1136 44.5348V44.5314C18.1125 44.4849 18.1117 44.4381 18.1112 44.3912V44.3902C18.1106 44.3429 18.1104 44.2954 18.1104 44.2477V44.2453C18.1108 41.4324 19.0115 38.3437 20.4995 35.5194" fill="var(--fill-0, #F5C918)"/>
<path id="Fill 223" fill-rule="evenodd" clip-rule="evenodd" d="M27.8832 27.4068V30.3499C27.9186 30.3296 27.9537 30.3098 27.989 30.2899L27.9912 30.2888C28.0248 30.27 28.0584 30.2515 28.0921 30.2333C28.097 30.2307 28.102 30.2279 28.1069 30.2253C28.122 30.2174 28.1371 30.2091 28.1522 30.2012C28.2414 30.1537 28.3304 30.1083 28.4188 30.0651C28.4535 30.0479 28.4882 30.0312 28.5227 30.0151C28.6304 29.9641 28.7373 29.9164 28.8436 29.8717C28.8742 29.8587 28.905 29.8462 28.9356 29.8337C28.96 29.8238 28.9845 29.8141 29.0089 29.8046C29.0216 29.7996 29.0345 29.7946 29.0473 29.7897C29.0641 29.783 29.0807 29.7767 29.0975 29.7704C29.1106 29.7655 29.1238 29.7605 29.1369 29.7555C29.2102 29.7283 29.2833 29.7024 29.3559 29.6783C29.3843 29.6688 29.4126 29.6595 29.4408 29.6506C29.4798 29.6379 29.5188 29.6258 29.5576 29.6144C29.6076 29.5992 29.6576 29.585 29.7072 29.5714C29.7908 29.5485 29.874 29.5276 29.9564 29.509C29.9867 29.5019 30.0169 29.4954 30.0469 29.4891C30.088 29.4803 30.1288 29.4721 30.1695 29.4645C30.1958 29.4596 30.2221 29.4548 30.2484 29.4501C30.2719 29.446 30.2954 29.4421 30.3187 29.4384C30.3359 29.4356 30.3531 29.433 30.3702 29.4304C30.4312 29.4211 30.4917 29.4131 30.5519 29.4064C30.5745 29.4039 30.5971 29.4013 30.6197 29.3991C30.7997 29.381 30.976 29.3732 31.1482 29.3754C31.1596 29.3754 31.1711 29.3756 31.1825 29.3758L31.1829 29.376C31.1952 29.376 31.2075 29.3764 31.2196 29.3766C31.2234 29.3769 31.2271 29.3769 31.2308 29.3771C31.2508 29.3777 31.2709 29.3784 31.2907 29.3795C31.3122 29.3803 31.3336 29.3814 31.3549 29.3829C31.395 29.3851 31.4347 29.3881 31.4743 29.3918C31.4836 29.3926 31.4931 29.3935 31.5023 29.3944L31.5047 29.3946C31.5196 29.3959 31.5342 29.3974 31.5489 29.3991C31.5683 29.401 31.5877 29.4034 31.6069 29.4058C31.6157 29.4069 31.6245 29.408 31.6332 29.409C31.6392 29.4097 31.645 29.4105 31.6506 29.4114L31.6558 29.4121C31.6655 29.4134 31.675 29.4146 31.6844 29.4159C31.7079 29.4194 31.7314 29.4228 31.7547 29.4267C31.77 29.4291 31.7853 29.4317 31.8006 29.4343C31.8245 29.4384 31.8485 29.4427 31.8722 29.4475C31.8836 29.4496 31.895 29.4518 31.9062 29.4542L31.9103 29.455C31.9211 29.4572 31.9319 29.4593 31.9424 29.4617C31.9599 29.4654 31.9773 29.4691 31.9944 29.4729C32.0006 29.4744 32.0067 29.476 32.0127 29.4773C32.0235 29.4798 32.034 29.4822 32.0446 29.4848H32.0448C32.0582 29.4881 32.0717 29.4915 32.0851 29.495C32.089 29.4958 32.0927 29.4967 32.0963 29.4978C32.1123 29.5019 32.1284 29.5062 32.1444 29.5105C32.1549 29.5133 32.1653 29.5161 32.1758 29.5191L32.1786 29.52C32.1935 29.5241 32.2082 29.5284 32.2228 29.5327L32.2243 29.5332C32.244 29.5388 32.2631 29.5448 32.2823 29.5509C32.3015 29.5569 32.3207 29.5632 32.3399 29.5694C32.356 29.5748 32.372 29.5802 32.3879 29.5859C32.3912 29.5869 32.3942 29.588 32.397 29.5891C32.4121 29.5943 32.4269 29.5997 32.4416 29.6051C32.4519 29.609 32.4625 29.6128 32.4728 29.6167C32.486 29.6217 32.4994 29.6267 32.5123 29.6318C32.5183 29.6342 32.5241 29.6366 32.5302 29.639C32.5351 29.6409 32.5399 29.6428 32.5446 29.6448C32.547 29.6457 32.5491 29.6465 32.5513 29.6476C32.5599 29.6508 32.5683 29.6545 32.5769 29.658C32.608 29.6707 32.6388 29.6841 32.6694 29.6979C32.6813 29.7031 32.6929 29.7085 32.7047 29.7141C32.7183 29.7204 32.7319 29.7266 32.7455 29.7333C32.7597 29.74 32.7741 29.7469 32.7882 29.754C32.806 29.7629 32.8239 29.772 32.8418 29.7812C32.858 29.7894 32.8739 29.7979 32.8899 29.8067C32.8942 29.8089 32.8985 29.811 32.9026 29.8134C32.9175 29.8214 32.9323 29.8296 32.9472 29.838L32.9498 29.8395C32.9606 29.8456 32.9711 29.8516 32.9817 29.8577C33.0106 29.8743 33.0392 29.8916 33.0677 29.9091C33.0847 29.9196 33.1015 29.9302 33.1183 29.941L33.1222 29.9436C33.1345 29.9514 33.1468 29.9594 33.1589 29.9676C33.1699 29.9747 33.1808 29.982 33.1916 29.9894C33.2272 30.0135 33.2623 30.0382 33.297 30.0638C33.3145 30.0764 33.3317 30.0893 33.3487 30.1025C33.3513 30.1044 33.3541 30.1066 33.3567 30.1085C33.3645 30.1146 33.3725 30.1206 33.3802 30.1269C33.3856 30.1312 33.391 30.1353 33.3964 30.1396C33.4048 30.1461 33.413 30.1528 33.4212 30.1595C33.4322 30.1683 33.4431 30.1772 33.4541 30.1863L33.4593 30.1906C33.4923 30.2178 33.5248 30.2459 33.5569 30.2746C33.5608 30.2778 33.5647 30.2813 33.5684 30.2847C33.5835 30.2983 33.5983 30.3119 33.6132 30.3262C33.6177 30.3301 33.6222 30.3342 33.6266 30.3385C33.6416 30.3523 33.6563 30.3665 33.671 30.381C33.6766 30.3864 33.6822 30.392 33.6878 30.3976C33.6921 30.4013 33.6962 30.4056 33.7001 30.4097C33.705 30.4145 33.7102 30.4194 33.7149 30.4246C33.719 30.4285 33.7229 30.4324 33.7266 30.4363C33.73 30.4395 33.733 30.4427 33.7363 30.446V30.4462C33.7483 30.4583 33.7602 30.4706 33.772 30.4833C33.7869 30.4989 33.8016 30.5146 33.8162 30.5306C33.8242 30.5393 33.8322 30.5481 33.8401 30.5572L33.8421 30.5593L33.8442 30.5617C33.8552 30.5738 33.866 30.5859 33.8766 30.598C33.8899 30.6133 33.9031 30.6286 33.9164 30.6446L33.9197 30.6483C33.924 30.6532 33.9283 30.6582 33.9324 30.6634L33.9341 30.6656C33.9373 30.6694 33.9408 30.6735 33.9442 30.6779C33.9511 30.6859 33.9578 30.6941 33.9643 30.7023L33.9677 30.7066C33.982 30.7238 33.9962 30.7418 34.0102 30.7597C34.0212 30.7735 34.0317 30.7873 34.0425 30.8014V30.8016C34.0468 30.8072 34.0511 30.8128 34.0552 30.8186L34.0585 30.8229C34.0636 30.8299 34.069 30.8368 34.0742 30.8441C34.0796 30.851 34.0848 30.8581 34.0897 30.8653C34.0953 30.8724 34.1005 30.8797 34.1057 30.8869V30.8871C34.1162 30.9015 34.1266 30.916 34.1367 30.9305C34.1412 30.9372 34.146 30.9441 34.1509 30.9512C34.1606 30.9652 34.1705 30.9797 34.1802 30.9944C34.182 30.9967 34.1837 30.9993 34.1854 31.0019C34.1895 31.0078 34.1934 31.0136 34.1973 31.0196V31.0198C34.2072 31.0347 34.2171 31.0499 34.227 31.0652C34.2367 31.0803 34.2464 31.0956 34.2561 31.1112C34.2574 31.1131 34.2585 31.1151 34.2598 31.117C34.2626 31.1213 34.2652 31.1254 34.2677 31.1297L34.2701 31.1336C34.2751 31.1414 34.28 31.1494 34.2848 31.1574V31.1576C34.2869 31.161 34.2889 31.1645 34.291 31.168C34.2984 31.18 34.3057 31.1921 34.3128 31.2042L34.313 31.2049C34.3225 31.2204 34.3318 31.2364 34.3408 31.2524C34.3451 31.2601 34.3496 31.2679 34.3542 31.2761C34.3589 31.2841 34.3634 31.2925 34.3682 31.3007C34.3701 31.3044 34.3723 31.3081 34.3742 31.3117C34.3794 31.321 34.3846 31.3301 34.3895 31.3394C34.3919 31.3439 34.3945 31.3487 34.3973 31.3536C34.4124 31.3813 34.427 31.4093 34.4412 31.4374C34.4434 31.4413 34.4453 31.4452 34.4473 31.449C34.4507 31.4557 34.4542 31.4624 34.4576 31.4693C34.4628 31.4793 34.4678 31.4894 34.4729 31.4994V31.4996C34.4796 31.5134 34.4865 31.527 34.493 31.5408C34.5029 31.5611 34.5126 31.5818 34.5223 31.6026C34.5238 31.6058 34.5253 31.609 34.5268 31.6123C34.5335 31.6263 34.54 31.6408 34.5464 31.6552C34.5525 31.6682 34.5583 31.6814 34.5639 31.6943C34.565 31.6963 34.5658 31.6984 34.5667 31.7006C34.5678 31.7027 34.5688 31.7051 34.5699 31.7077C34.5777 31.7252 34.5852 31.7431 34.593 31.761C34.6005 31.7787 34.6081 31.7966 34.6154 31.8148V31.815C34.6184 31.8221 34.6214 31.8295 34.6244 31.837C34.6348 31.8623 34.6449 31.888 34.6548 31.9137C34.6561 31.9171 34.6576 31.9208 34.6591 31.9247C34.6641 31.9378 34.6691 31.951 34.674 31.9642C34.6762 31.9694 34.6781 31.9748 34.68 31.9799C34.6813 31.9834 34.6826 31.9868 34.6839 31.9903C34.6878 32.0007 34.6915 32.011 34.6951 32.0212C34.6982 32.0294 34.7012 32.0374 34.704 32.0456C34.7059 32.0508 34.7076 32.0562 34.7096 32.0613C34.7117 32.0672 34.7137 32.073 34.7158 32.0786C34.724 32.1024 34.7322 32.1263 34.7404 32.1503V32.1505C34.7473 32.1712 34.7542 32.1924 34.7611 32.2135C34.7656 32.2274 34.7701 32.2414 34.7744 32.2554C34.7755 32.2591 34.7768 32.2628 34.7779 32.2664C34.79 32.3055 34.802 32.3452 34.8135 32.3852C34.8178 32.3999 34.8219 32.4148 34.826 32.4294C34.8275 32.4346 34.829 32.4398 34.8305 32.4452C34.8322 32.451 34.8337 32.4569 34.8354 32.4627C34.8378 32.4718 34.8402 32.4806 34.8428 32.4897L34.8441 32.4949C34.8449 32.4983 34.846 32.502 34.8471 32.5059C34.8585 32.5493 34.8697 32.5933 34.8805 32.6378C34.8844 32.6533 34.8882 32.6691 34.8919 32.6851C34.8923 32.6868 34.8928 32.6887 34.8932 32.6909L34.8947 32.6967C34.899 32.7155 34.9033 32.7345 34.9076 32.7533C34.9122 32.774 34.9169 32.7952 34.9214 32.8165C34.926 32.8377 34.9305 32.8589 34.9348 32.8804V32.8807C34.9391 32.902 34.9434 32.9234 34.9475 32.9448C34.9516 32.9662 34.9557 32.9878 34.9598 33.0096V33.01L34.96 33.0102C34.9635 33.0294 34.9669 33.0484 34.9701 33.0676C34.9706 33.07 34.971 33.0726 34.9714 33.0754L34.9719 33.0773C34.9753 33.0979 34.979 33.1184 34.9822 33.1389L34.9829 33.1425C34.99 33.1862 34.9969 33.2302 35.0033 33.2745V33.2747C35.0064 33.2952 35.0092 33.3157 35.012 33.3362C35.0124 33.3392 35.0128 33.3423 35.0133 33.3455C35.0161 33.3671 35.0191 33.3885 35.0217 33.41V33.4103C35.0262 33.4459 35.0305 33.4817 35.0346 33.518C35.0348 33.5199 35.035 33.5219 35.0352 33.5238C35.0361 33.5318 35.037 33.5398 35.038 33.548C35.0385 33.5525 35.0389 33.5573 35.0395 33.562C35.0413 33.5797 35.0432 33.5977 35.0449 33.6156L35.0454 33.6188C35.0475 33.6417 35.0497 33.6646 35.0518 33.6875C35.054 33.7108 35.0561 33.7343 35.0581 33.7581V33.7583C35.0658 33.8526 35.0721 33.9485 35.0768 34.0459V34.0461C35.0779 34.0703 35.079 34.0947 35.0801 34.1191V34.1193C35.082 34.1681 35.0835 34.2173 35.0848 34.2669V34.2672C35.0859 34.3151 35.0867 34.3637 35.0872 34.4125V34.4274C35.0874 34.4496 35.0874 34.4718 35.0874 34.4941C35.0874 34.7767 35.0749 35.063 35.0508 35.3523C35.0503 35.3581 35.0497 35.3639 35.0492 35.37C35.0458 35.4108 35.0421 35.4516 35.038 35.4924C35.0352 35.5215 35.0324 35.5509 35.0294 35.5802C35.0178 35.6904 35.0046 35.8011 34.99 35.9121C34.987 35.9335 34.9839 35.9548 34.9809 35.9764C34.9738 36.0287 34.9661 36.0811 34.9581 36.1334V36.134C34.9525 36.1709 34.9464 36.2081 34.9406 36.2452C34.9346 36.2821 34.9283 36.3191 34.9221 36.356V36.3566C34.9186 36.3763 34.9152 36.3959 34.9115 36.4156C34.9107 36.422 34.9094 36.4287 34.9081 36.4354C34.9064 36.446 34.9044 36.4568 34.9025 36.4676V36.4682H34.9023C34.8876 36.5494 34.8721 36.6308 34.8557 36.7124C34.8434 36.7746 34.8305 36.8368 34.8169 36.899C34.7648 37.1416 34.7051 37.3852 34.6385 37.6289C34.6247 37.6796 34.6106 37.7302 34.596 37.7809C34.5932 37.7913 34.5904 37.8016 34.5874 37.8118C34.5695 37.8746 34.5509 37.9374 34.5318 38.0002L37.2543 36.4156C37.2737 36.3294 37.2922 36.2431 37.3101 36.1569C37.5308 35.0932 37.6487 34.04 37.6489 33.0227C37.6494 30.514 36.9334 28.6087 35.7232 27.4346C35.6736 27.3865 35.623 27.3394 35.5717 27.2937C35.5544 27.2783 35.5374 27.2632 35.52 27.2483C35.468 27.2034 35.4154 27.1598 35.3618 27.1173C35.1855 26.9774 35.0003 26.8513 34.807 26.739C34.8048 26.7377 34.8027 26.7364 34.8005 26.7351C34.7932 26.731 34.7859 26.7267 34.7785 26.7226C34.7684 26.7168 34.7583 26.711 34.7479 26.7051C34.7458 26.7041 34.7438 26.7028 34.7417 26.7017C34.7219 26.6907 34.7022 26.6797 34.6822 26.6691C34.6712 26.663 34.6602 26.657 34.649 26.6514C34.6357 26.644 34.6223 26.6371 34.6089 26.6302C34.5915 26.6211 34.574 26.6123 34.5563 26.6034C34.5406 26.5955 34.5249 26.5877 34.5089 26.5801C34.4936 26.5726 34.4783 26.5652 34.463 26.5579C34.4602 26.5566 34.4574 26.5553 34.4546 26.554C34.4402 26.5471 34.4257 26.5404 34.4113 26.5339C34.4005 26.5287 34.3897 26.524 34.379 26.519C34.3578 26.5095 34.3367 26.5002 34.3156 26.4912L34.3143 26.4905C34.3091 26.4884 34.304 26.486 34.2988 26.4841C34.279 26.4754 34.2589 26.467 34.2389 26.4588C34.2139 26.4484 34.1891 26.4385 34.1639 26.4286C34.1565 26.4258 34.149 26.4227 34.1417 26.4199C34.1283 26.4147 34.1147 26.4096 34.1011 26.4046C34.0962 26.4027 34.0912 26.4007 34.0863 26.399C34.083 26.3977 34.0798 26.3966 34.0766 26.3955C34.0621 26.3899 34.0477 26.3847 34.0333 26.3798C34.0253 26.3768 34.0171 26.3739 34.0089 26.3709C33.983 26.3619 33.957 26.3528 33.9309 26.3441C33.9048 26.3355 33.8785 26.3269 33.8522 26.3187C33.8464 26.3169 33.8404 26.315 33.8343 26.3133C33.8175 26.3079 33.8005 26.3027 33.7835 26.2977C33.78 26.2967 33.7763 26.2956 33.7729 26.2945C33.7464 26.2867 33.7197 26.2789 33.6929 26.2716C33.6906 26.271 33.6882 26.2703 33.686 26.2699C33.6671 26.2645 33.6479 26.2593 33.6287 26.2543C33.6233 26.2528 33.6179 26.2515 33.6125 26.25C33.5587 26.236 33.5044 26.2228 33.4498 26.2107C33.436 26.2077 33.4225 26.2047 33.4087 26.2017C33.4015 26.2001 33.3944 26.1986 33.3875 26.1971C33.3731 26.1941 33.3589 26.1911 33.3444 26.1883C33.3283 26.185 33.3121 26.1818 33.2957 26.1788C33.2903 26.1775 33.2849 26.1764 33.2796 26.1755C33.2533 26.1706 33.227 26.1658 33.2005 26.1613C33.1826 26.158 33.1645 26.155 33.1464 26.1522C33.1367 26.1505 33.1268 26.149 33.1168 26.1475L33.1162 26.1473C33.0927 26.1436 33.0692 26.1401 33.0455 26.1369C33.0317 26.1347 33.0179 26.1328 33.0039 26.1311C32.9897 26.1291 32.9752 26.1272 32.9608 26.1254C32.9457 26.1235 32.9306 26.1216 32.9155 26.12C32.9069 26.1188 32.8985 26.1177 32.8899 26.117C32.8761 26.1153 32.8621 26.1138 32.8481 26.1123C32.8285 26.1101 32.8088 26.1082 32.7892 26.1064C32.731 26.1008 32.6726 26.0963 32.6138 26.0926C32.5996 26.0918 32.5851 26.0909 32.5709 26.09C32.5509 26.089 32.5308 26.0879 32.5108 26.087C32.4884 26.0859 32.4662 26.0851 32.4437 26.0844C32.4269 26.0838 32.4099 26.0833 32.3931 26.0829C32.3709 26.0823 32.3485 26.0818 32.3263 26.0816C32.2985 26.0812 32.2707 26.081 32.2429 26.081C32.0379 26.081 31.8286 26.0913 31.6157 26.1123H31.6155C31.4592 26.1278 31.301 26.1488 31.1407 26.1757C31.1262 26.1781 31.1116 26.1807 31.0971 26.1831C31.0831 26.1857 31.0691 26.1881 31.0551 26.1909C31.0254 26.196 30.9956 26.2014 30.9659 26.2073H30.9652C30.9435 26.2116 30.9215 26.2159 30.8997 26.2202C30.8911 26.222 30.8825 26.2237 30.8741 26.2256C30.8234 26.236 30.7726 26.2468 30.7215 26.2584C30.7075 26.2615 30.6935 26.2647 30.6794 26.2679C30.6475 26.2753 30.6157 26.2828 30.5838 26.2908C30.4764 26.3169 30.3682 26.3457 30.2594 26.377C30.2482 26.38 30.2372 26.3832 30.226 26.3865C30.1807 26.3996 30.1355 26.4132 30.09 26.4273C30.0439 26.4415 29.9977 26.4562 29.9514 26.4713C29.9286 26.4789 29.9055 26.4864 29.8824 26.4942C29.8365 26.5095 29.7906 26.5253 29.7445 26.5417C29.721 26.5499 29.6975 26.5583 29.674 26.5667C29.6066 26.5911 29.5387 26.6166 29.4706 26.6427C29.4673 26.644 29.4641 26.6453 29.4611 26.6464C29.4156 26.6641 29.3699 26.6822 29.3244 26.7006L29.3231 26.701C29.2055 26.7487 29.0871 26.799 28.9684 26.8522C28.9449 26.8627 28.9216 26.8733 28.8981 26.8839C28.88 26.8921 28.8617 26.9005 28.8434 26.9089C28.8345 26.913 28.8255 26.9174 28.8164 26.9215C28.7005 26.9754 28.5839 27.0322 28.4666 27.0916L28.4651 27.0922C28.441 27.1045 28.4169 27.1168 28.3927 27.1292C28.369 27.1415 28.3453 27.1538 28.3216 27.1663L28.3201 27.1669C28.3039 27.1754 28.2878 27.184 28.2716 27.1924C28.2149 27.2224 28.1582 27.2531 28.1013 27.2842C28.0548 27.3099 28.0082 27.3358 27.9614 27.3621C27.9354 27.377 27.9093 27.3917 27.8832 27.4068" fill="var(--fill-0, #FFEDA3)"/>
<path id="Fill 224" fill-rule="evenodd" clip-rule="evenodd" d="M20.6724 42.7743V42.7768C20.6724 42.8116 20.6726 42.8464 20.673 42.8809C20.6733 42.9165 20.6739 42.9519 20.6748 42.9869C20.6754 43.0165 20.6763 43.0461 20.6771 43.0754C20.6776 43.0882 20.678 43.1009 20.6784 43.1136C20.6793 43.1385 20.6804 43.1631 20.6815 43.1877C20.6817 43.1909 20.6817 43.1942 20.6819 43.1972C20.6832 43.227 20.6847 43.2568 20.6864 43.2864C20.6879 43.3133 20.6894 43.3403 20.6914 43.3671C20.6929 43.3911 20.6944 43.415 20.6963 43.4388C20.6978 43.4589 20.6993 43.4789 20.7009 43.499C20.703 43.5262 20.7054 43.5534 20.708 43.5806C20.7088 43.591 20.7099 43.6016 20.711 43.6119C20.7134 43.6389 20.7162 43.6659 20.719 43.6929C20.722 43.7231 20.7254 43.7533 20.7291 43.7834C20.7321 43.8101 20.7353 43.8369 20.7388 43.8632C20.7405 43.8771 20.7422 43.8909 20.7442 43.9045C20.7465 43.9233 20.7491 43.942 20.7519 43.9606C20.7565 43.9941 20.7614 44.0273 20.7666 44.0606C20.7687 44.0752 20.7711 44.0901 20.7737 44.1048C20.7761 44.1206 20.7787 44.1363 20.7815 44.1519C20.7912 44.211 20.8017 44.2696 20.8131 44.3272C20.8159 44.3425 20.819 44.3579 20.8222 44.373C20.8243 44.3848 20.8269 44.3969 20.8295 44.4088C20.8323 44.4231 20.8353 44.4373 20.8384 44.4513C20.8636 44.5694 20.8916 44.6849 20.9224 44.7974C20.9287 44.8207 20.9351 44.8438 20.9418 44.8669C20.9662 44.9522 20.992 45.0358 21.0194 45.1176C21.0285 45.1444 21.0375 45.1711 21.047 45.1975C21.055 45.2204 21.0632 45.243 21.0716 45.2657C21.0894 45.3147 21.108 45.3631 21.1274 45.4108C21.1319 45.4222 21.1364 45.4337 21.1412 45.4449C21.1569 45.484 21.1733 45.5224 21.1901 45.5604C21.197 45.5762 21.2039 45.5917 21.2108 45.6073C21.2285 45.6466 21.2466 45.6854 21.2651 45.7236L24.9793 43.5616L25.6289 43.1834L25.6297 43.1892L25.6291 43.1834L27.022 42.3725L27.1757 42.2829L31.5936 39.7111L34.5323 38.0005V38.0003C34.5514 37.9375 34.57 37.8747 34.5879 37.8118C34.5922 37.7967 34.5965 37.7818 34.6008 37.7667C34.6017 37.7637 34.6025 37.7605 34.6034 37.7574C34.6066 37.7464 34.6096 37.7352 34.6129 37.7242C34.6146 37.7177 34.6163 37.7115 34.618 37.705L34.6187 37.703C34.6254 37.6784 34.6323 37.6536 34.6389 37.629C34.7055 37.3852 34.7652 37.1417 34.8174 36.899C34.831 36.8369 34.8439 36.7747 34.8562 36.7125C34.8726 36.6309 34.8881 36.5495 34.9028 36.4683L34.903 36.4677C34.9049 36.4569 34.9068 36.4461 34.9086 36.4355C34.909 36.4331 34.9094 36.431 34.9099 36.4286L34.9107 36.4238L34.9116 36.4191L34.912 36.4156C34.9129 36.4111 34.9137 36.4066 34.9146 36.402C34.9174 36.3869 34.92 36.3718 34.9226 36.3569V36.3567C34.9288 36.3196 34.9351 36.2824 34.9411 36.2455V36.2453C34.9469 36.2082 34.953 36.171 34.9586 36.1341V36.1335C34.9625 36.1073 34.9665 36.0812 34.9702 36.0551C34.9737 36.032 34.9769 36.0089 34.9801 35.9858C34.9806 35.9828 34.981 35.9795 34.9814 35.9765C34.9816 35.9741 34.9821 35.972 34.9823 35.9698L34.9829 35.9651C34.9866 35.9398 34.9898 35.9145 34.9933 35.8893C34.9944 35.8817 34.9952 35.8742 34.9963 35.8666C34.9967 35.8627 34.9972 35.8588 34.9978 35.8549C35.0008 35.831 35.0038 35.807 35.0066 35.7828C35.0071 35.7802 35.0075 35.7777 35.0077 35.7751C35.0084 35.7707 35.0088 35.7664 35.0092 35.7619C35.0105 35.7526 35.0116 35.7433 35.0127 35.7338L35.0133 35.7284C35.014 35.7228 35.0146 35.7172 35.0153 35.7116C35.0159 35.706 35.0166 35.7004 35.0172 35.6948C35.0174 35.6922 35.0178 35.6896 35.0181 35.687C35.0209 35.6637 35.0234 35.6403 35.0258 35.6172L35.0263 35.6131C35.0306 35.5728 35.0347 35.5326 35.0385 35.4925C35.0396 35.4823 35.0405 35.4722 35.0416 35.4618C35.0444 35.4311 35.0472 35.4007 35.0497 35.37C35.0502 35.364 35.0508 35.3582 35.0513 35.3523C35.0573 35.28 35.0627 35.2079 35.0672 35.136C35.0689 35.109 35.0704 35.082 35.0719 35.055C35.0724 35.0462 35.073 35.0371 35.0735 35.0283C35.0737 35.0244 35.0739 35.0203 35.0741 35.0164L35.0743 35.011C35.0745 35.0071 35.0747 35.0034 35.075 34.9996L35.0752 34.9937C35.0756 34.9866 35.0758 34.9795 35.0763 34.9726C35.0765 34.9661 35.0769 34.9598 35.0771 34.9536C35.0773 34.9469 35.0778 34.9402 35.078 34.9333C35.0784 34.9212 35.0788 34.9091 35.0795 34.897C35.0795 34.8946 35.0797 34.8923 35.0797 34.8899C35.0799 34.8864 35.0799 34.883 35.0801 34.8795L35.0808 34.8633C35.0812 34.8523 35.0816 34.8413 35.0821 34.8303C35.0823 34.823 35.0825 34.8156 35.0827 34.8085C35.0827 34.8066 35.0829 34.8046 35.0829 34.8027C35.0831 34.7996 35.0831 34.7966 35.0831 34.7938L35.0834 34.7897V34.7878L35.0836 34.7845V34.7793C35.0838 34.7765 35.0838 34.774 35.0838 34.7714C35.0842 34.7625 35.0844 34.7539 35.0844 34.7452C35.0847 34.7411 35.0847 34.7368 35.0849 34.7327C35.0849 34.7295 35.0851 34.726 35.0851 34.7228C35.0851 34.7198 35.0853 34.717 35.0853 34.7139C35.0853 34.7107 35.0853 34.7077 35.0855 34.7044V34.7005C35.0857 34.6934 35.0857 34.6865 35.086 34.6794V34.6779C35.0862 34.6755 35.0862 34.6731 35.0862 34.671V34.6679C35.0864 34.6636 35.0864 34.6593 35.0866 34.655V34.6492C35.0868 34.6429 35.0868 34.6366 35.0868 34.6304C35.087 34.6256 35.087 34.6211 35.087 34.6166V34.609C35.087 34.6038 35.0872 34.5986 35.0872 34.5937V34.5846L35.0875 34.5814V34.5671C35.0877 34.5548 35.0877 34.5427 35.0877 34.5306C35.0879 34.5183 35.0879 34.5062 35.0879 34.4941C35.0879 34.4719 35.0879 34.4497 35.0877 34.4274V34.4125C35.0872 34.3637 35.0864 34.3152 35.0853 34.2672V34.267C35.084 34.2174 35.0825 34.1681 35.0806 34.1193V34.1191C35.0795 34.0947 35.0784 34.0703 35.0773 34.0462V34.0459C35.0765 34.0287 35.0754 34.0114 35.0745 33.9943C35.0741 33.9872 35.0739 33.9803 35.0735 33.9732C35.073 33.968 35.0728 33.9626 35.0726 33.9574C35.0722 33.9527 35.0719 33.9479 35.0717 33.9432C35.0715 33.9412 35.0715 33.9391 35.0713 33.9371C35.0702 33.919 35.0691 33.9009 35.0678 33.8829C35.0668 33.865 35.0655 33.8471 35.0642 33.8294C35.0625 33.8056 35.0605 33.7819 35.0586 33.7584V33.7582C35.0566 33.7344 35.0545 33.7109 35.0523 33.6876C35.0502 33.6647 35.048 33.6418 35.0459 33.6189L35.0454 33.6157C35.0437 33.5977 35.0418 33.5798 35.04 33.5621C35.0394 33.5574 35.039 33.5526 35.0385 33.5481C35.0377 33.5401 35.0368 33.5319 35.0357 33.5239C35.0355 33.522 35.0353 33.52 35.0351 33.5181C35.031 33.4818 35.0267 33.446 35.0222 33.4103V33.4101C35.0196 33.3885 35.0166 33.3672 35.0137 33.3456C35.0133 33.3423 35.0129 33.3393 35.0125 33.3363C35.0097 33.3158 35.0069 33.2953 35.0038 33.2748V33.2745C34.9974 33.2303 34.9905 33.1862 34.9834 33.1426L34.9827 33.139C34.9795 33.1184 34.9758 33.0979 34.9724 33.0774V33.0772L34.9719 33.0755C34.9715 33.0727 34.9711 33.0701 34.9706 33.0677C34.9672 33.0483 34.9637 33.0291 34.9603 33.0101V33.0096C34.9562 32.9878 34.9521 32.9662 34.948 32.9449C34.9439 32.9235 34.9396 32.9021 34.9353 32.8807V32.8805C34.931 32.8589 34.9265 32.8378 34.9219 32.8166C34.9174 32.7952 34.9127 32.7741 34.9081 32.7534C34.9034 32.7324 34.8987 32.7117 34.8937 32.691C34.8933 32.6888 34.8928 32.6869 34.8924 32.6851C34.8887 32.6692 34.8849 32.6534 34.881 32.6379C34.8702 32.5934 34.859 32.5493 34.8476 32.5059C34.8467 32.5023 34.8456 32.4986 34.8446 32.4949L34.8433 32.4898C34.8396 32.4766 34.8359 32.4636 34.8323 32.4505L34.831 32.4453C34.8295 32.4399 34.828 32.4347 34.8265 32.4295C34.8224 32.4148 34.8183 32.3999 34.814 32.3853C34.8025 32.3453 34.7905 32.3056 34.7784 32.2665C34.7728 32.2488 34.7672 32.2311 34.7616 32.2136C34.7547 32.1925 34.7478 32.1713 34.7409 32.1506V32.1504C34.7377 32.1409 34.7344 32.1314 34.731 32.1219L34.7295 32.1171L34.729 32.1158L34.7277 32.1124L34.7269 32.1096L34.7265 32.108C34.7256 32.1057 34.7249 32.1035 34.7241 32.1014C34.723 32.0985 34.7221 32.096 34.7213 32.0934L34.7208 32.0923C34.7174 32.0819 34.7137 32.0716 34.7101 32.0614C34.7081 32.0562 34.7064 32.0508 34.7045 32.0457C34.7015 32.0374 34.6986 32.0292 34.6956 32.0213C34.693 32.0143 34.6907 32.0077 34.6881 32.0007C34.6864 31.9956 34.6844 31.9904 34.6825 31.9854L34.6805 31.9805V31.9802C34.6786 31.9748 34.6767 31.9697 34.6745 31.9643C34.6696 31.9511 34.6646 31.9379 34.6596 31.9248C34.6583 31.9211 34.6568 31.9174 34.6553 31.9137C34.6467 31.8915 34.6381 31.8695 34.629 31.8475C34.6277 31.844 34.6262 31.8406 34.6249 31.8371C34.6219 31.8295 34.6189 31.8222 34.6159 31.8151V31.8149C34.6086 31.7969 34.601 31.779 34.5935 31.7613V31.7611C34.5859 31.7432 34.5782 31.7255 34.5704 31.7078C34.5693 31.7054 34.5683 31.703 34.5672 31.7006C34.5663 31.6985 34.5655 31.6963 34.5644 31.6944C34.5588 31.6814 34.553 31.6683 34.5469 31.6553C34.5405 31.6408 34.534 31.6264 34.5273 31.6123C34.5258 31.6089 34.5243 31.6057 34.5228 31.6026C34.5131 31.5819 34.5034 31.5612 34.4935 31.5409C34.4924 31.5387 34.4913 31.5364 34.49 31.5342C34.4889 31.5318 34.4879 31.5294 34.4868 31.5273C34.4857 31.5251 34.4846 31.5227 34.4836 31.5204L34.4825 31.5182C34.4795 31.512 34.4764 31.5057 34.4734 31.4996V31.4994C34.4711 31.4949 34.4689 31.4906 34.4665 31.486C34.4642 31.4815 34.462 31.4772 34.4596 31.4727L34.4581 31.4694C34.4547 31.4625 34.4512 31.4558 34.4478 31.4491C34.4458 31.4452 34.4439 31.4414 34.4417 31.4375C34.4273 31.4092 34.4126 31.3813 34.3978 31.3537C34.395 31.3487 34.3924 31.344 34.39 31.3395C34.3848 31.3302 34.3799 31.3209 34.3747 31.3118C34.3728 31.3081 34.3706 31.3045 34.3687 31.3008C34.3639 31.2924 34.3594 31.2842 34.3547 31.2762C34.3501 31.268 34.3456 31.2602 34.3413 31.2524C34.332 31.2363 34.3228 31.2205 34.3135 31.2049L34.3133 31.2043C34.306 31.1922 34.2988 31.1801 34.2915 31.168C34.2894 31.1646 34.2874 31.1611 34.2853 31.1577V31.1575C34.2831 31.154 34.281 31.1505 34.2786 31.1471C34.276 31.1426 34.2732 31.138 34.2706 31.1337L34.2682 31.1298C34.2654 31.1255 34.2629 31.1212 34.2603 31.1171C34.259 31.1151 34.2579 31.1132 34.2566 31.1112C34.2469 31.0959 34.2372 31.0806 34.2275 31.0653C34.2176 31.0499 34.2077 31.0348 34.1978 31.0199V31.0197C34.196 31.0173 34.1945 31.015 34.1928 31.0126C34.1907 31.0091 34.1883 31.0055 34.1859 31.002C34.1842 30.9994 34.1825 30.9968 34.1807 30.9944C34.171 30.98 34.1613 30.9655 34.1514 30.9513C34.1465 30.9441 34.1417 30.9372 34.1372 30.9305C34.1269 30.9159 34.1165 30.9014 34.1062 30.8871V30.8869C34.1008 30.8796 34.0956 30.8725 34.0902 30.8653C34.085 30.858 34.0799 30.8511 34.0747 30.8442C34.0695 30.8371 34.0644 30.8299 34.059 30.823L34.0557 30.8187L34.0553 30.8183C34.0512 30.8127 34.0471 30.8073 34.043 30.8017V30.8014C34.0322 30.7876 34.0215 30.7738 34.0107 30.76V30.7598C33.9967 30.7418 33.9825 30.7241 33.9682 30.7067L33.9648 30.7023C33.9581 30.6939 33.9514 30.6859 33.9447 30.6779C33.9415 30.6738 33.9381 30.6697 33.9346 30.6656L33.9327 30.6637L33.9294 30.6594L33.9286 30.6583C33.9258 30.6551 33.923 30.6518 33.9202 30.6484L33.9169 30.6447C33.9036 30.6287 33.8904 30.6134 33.8771 30.5981C33.8663 30.5858 33.8555 30.5737 33.8447 30.5618L33.8426 30.5594L33.8406 30.5573C33.8327 30.5482 33.8247 30.5393 33.8167 30.5307C33.8021 30.5147 33.7874 30.499 33.7725 30.4834C33.7607 30.4707 33.7488 30.4584 33.7368 30.4463V30.4461L33.7346 30.4441C33.732 30.4415 33.7296 30.4389 33.7271 30.4364C33.7232 30.4325 33.7193 30.4286 33.7154 30.4247C33.7107 30.4195 33.7055 30.4145 33.7005 30.4098C33.6965 30.4057 33.6924 30.4016 33.6883 30.3977C33.6827 30.3921 33.6771 30.3865 33.6715 30.3811C33.6568 30.3666 33.6419 30.3526 33.6271 30.3386C33.6227 30.3342 33.6182 30.3301 33.6137 30.3262C33.6036 30.3165 33.5934 30.3072 33.5833 30.2982C33.5747 30.2902 33.5661 30.2824 33.5574 30.2746C33.5253 30.2459 33.4928 30.2179 33.4598 30.1907L33.4546 30.1863C33.4439 30.1773 33.4326 30.1684 33.4217 30.1596C33.4135 30.1529 33.4053 30.1462 33.3969 30.1397C33.3915 30.1354 33.3861 30.1313 33.3807 30.127C33.3729 30.1209 33.365 30.1149 33.3572 30.1088C33.3484 30.1019 33.3393 30.0952 33.3305 30.0885C33.3195 30.0801 33.3085 30.0719 33.2975 30.0639C33.2628 30.0382 33.2277 30.0136 33.1921 29.9894C33.1813 29.9821 33.1704 29.9748 33.1594 29.9676C33.1473 29.9594 33.135 29.9514 33.1227 29.9437L33.1188 29.9411C33.102 29.9303 33.0852 29.9197 33.0682 29.9091C33.0397 29.8916 33.0111 29.8744 32.9822 29.8577C32.9716 29.8517 32.9611 29.8457 32.9503 29.8396L32.9477 29.8381C32.9331 29.8297 32.9182 29.8215 32.9031 29.8135C32.899 29.8111 32.8947 29.809 32.8904 29.8068C32.8871 29.8051 32.8841 29.8033 32.8809 29.8016C32.8787 29.8005 32.8768 29.7995 32.8746 29.7984C32.8729 29.7973 32.871 29.7962 32.869 29.7954C32.8662 29.7936 32.8632 29.7921 32.8602 29.7906C32.8544 29.7876 32.8484 29.7843 32.8423 29.7813C32.8244 29.772 32.8065 29.763 32.7887 29.7541C32.7746 29.747 32.7604 29.7401 32.746 29.7334C32.7324 29.7267 32.7188 29.7204 32.7052 29.7142C32.6992 29.7114 32.6932 29.7086 32.6871 29.7058C32.6813 29.7032 32.6757 29.7006 32.6699 29.698C32.6393 29.6842 32.6085 29.6708 32.5774 29.658C32.5688 29.6546 32.5604 29.6509 32.5518 29.6477C32.5496 29.6466 32.5475 29.6457 32.5451 29.6449C32.5404 29.6429 32.5356 29.641 32.5307 29.639C32.5248 29.6367 32.5188 29.6343 32.5128 29.6319C32.4998 29.6267 32.4865 29.6218 32.4733 29.6168L32.4714 29.6162C32.4619 29.6125 32.4524 29.609 32.4429 29.6056L32.4421 29.6051C32.4274 29.5997 32.4126 29.5944 32.3975 29.5892L32.3884 29.5859C32.3725 29.5803 32.3565 29.5749 32.3404 29.5695C32.3214 29.5633 32.3022 29.557 32.2828 29.551C32.2735 29.5481 32.2643 29.5451 32.255 29.5423C32.2488 29.5404 32.2425 29.5384 32.2363 29.5367L32.2348 29.5363C32.2315 29.5352 32.2281 29.5341 32.2248 29.5333L32.2233 29.5328C32.2087 29.5285 32.194 29.5242 32.1791 29.5201L32.1763 29.5192C32.1658 29.5162 32.1554 29.5134 32.1449 29.5106C32.1289 29.5063 32.1128 29.5019 32.0968 29.4978C32.0932 29.4968 32.0895 29.4959 32.0856 29.495C32.0722 29.4916 32.0589 29.4883 32.0455 29.4851L32.0453 29.4849H32.0451C32.0345 29.4823 32.024 29.4799 32.0132 29.4773C32.0072 29.476 32.0011 29.4745 31.9949 29.473C31.9778 29.4691 31.9604 29.4655 31.9429 29.4618C31.9324 29.4594 31.9216 29.4573 31.9108 29.4551L31.9067 29.4542C31.8955 29.4519 31.8841 29.4497 31.8727 29.4475C31.8686 29.4467 31.8645 29.4458 31.8602 29.4452C31.8571 29.4445 31.8541 29.4439 31.8509 29.4434C31.8343 29.4402 31.8177 29.4372 31.8011 29.4344C31.7858 29.4318 31.7705 29.4292 31.7552 29.4268C31.7444 29.4251 31.7337 29.4234 31.7227 29.4216C31.7102 29.4197 31.6977 29.418 31.6849 29.416C31.6755 29.4147 31.666 29.4134 31.6563 29.4121L31.6511 29.4115C31.6453 29.4106 31.6395 29.4098 31.6336 29.4091C31.625 29.408 31.6162 29.407 31.6074 29.4059C31.5882 29.4035 31.5688 29.4011 31.5494 29.3992C31.5347 29.3975 31.5201 29.3959 31.5052 29.3946L31.5028 29.3944L31.5002 29.3942C31.4918 29.3934 31.4832 29.3927 31.4748 29.3918C31.4351 29.3882 31.3955 29.3851 31.3554 29.383C31.3532 29.3828 31.3513 29.3828 31.3492 29.3826C31.33 29.3813 31.3106 29.3804 31.2912 29.3795C31.2713 29.3785 31.2513 29.3778 31.2313 29.3772C31.2276 29.3769 31.2239 29.3769 31.2201 29.3767C31.208 29.3765 31.1957 29.3761 31.1834 29.3761H31.1804L31.1752 29.3759L31.1713 29.3756H31.166C31.1601 29.3754 31.1545 29.3754 31.1487 29.3754C31.1265 29.3752 31.1043 29.375 31.0819 29.375H31.0709V29.3752L31.0707 29.375L31.0705 29.3752H31.0696C31.058 29.3752 31.0461 29.3752 31.0345 29.3754C31.0196 29.3756 31.0047 29.3759 30.9899 29.3763C30.9793 29.3765 30.9687 29.3767 30.9582 29.3772C30.9272 29.378 30.8957 29.3793 30.8642 29.3808L30.8599 29.381H30.8586L30.8558 29.3813L30.8509 29.3815L30.8485 29.3817C30.8405 29.3821 30.8323 29.3826 30.8239 29.383C30.8157 29.3834 30.8075 29.3839 30.7993 29.3845C30.7896 29.3851 30.7797 29.3858 30.7698 29.3864C30.7599 29.3871 30.75 29.3877 30.7401 29.3886C30.7304 29.3895 30.7207 29.3901 30.711 29.391L30.708 29.3912H30.7073C30.7028 29.3916 30.6983 29.3918 30.6937 29.3923C30.6899 29.3927 30.6858 29.3929 30.6819 29.3934L30.6802 29.3936L30.6778 29.3938C30.6724 29.3942 30.6668 29.3946 30.6612 29.3953C30.6476 29.3964 30.634 29.3977 30.6202 29.3992C30.608 29.4003 30.5959 29.4016 30.5836 29.4031C30.5733 29.4041 30.5629 29.4052 30.5524 29.4065C30.5422 29.4076 30.5319 29.4089 30.5215 29.41C30.5194 29.4104 30.517 29.4106 30.5146 29.4108C30.506 29.4119 30.4974 29.413 30.4888 29.4141C30.4709 29.4162 30.453 29.4186 30.4349 29.4212C30.4211 29.4231 30.4071 29.4251 30.3933 29.4272C30.3911 29.4275 30.389 29.4277 30.3868 29.4281C30.3814 29.429 30.3761 29.4296 30.3707 29.4305C30.3536 29.4331 30.3364 29.4357 30.3192 29.4385C30.2959 29.4421 30.2724 29.446 30.2489 29.4501C30.2226 29.4549 30.1963 29.4596 30.17 29.4646C30.1293 29.4722 30.0885 29.4804 30.0474 29.4892C30.0174 29.4955 29.9872 29.5019 29.9569 29.5091L29.9558 29.5093C29.9355 29.5138 29.9153 29.5186 29.895 29.5235C29.8773 29.5276 29.8596 29.532 29.8418 29.5365C29.829 29.5397 29.8163 29.543 29.8034 29.5462C29.7924 29.549 29.7814 29.5518 29.7704 29.5546C29.7661 29.5557 29.7618 29.557 29.7575 29.5581C29.7409 29.5624 29.7243 29.5669 29.7077 29.5715C29.6952 29.5749 29.6829 29.5784 29.6704 29.5818C29.6581 29.5853 29.6456 29.5887 29.6331 29.5924H29.6329C29.6081 29.5995 29.5831 29.6069 29.5581 29.6144C29.5193 29.6259 29.4803 29.638 29.4413 29.6507C29.4342 29.6529 29.4273 29.6552 29.4202 29.6574C29.4131 29.6596 29.406 29.6619 29.3989 29.6643C29.3848 29.6688 29.3706 29.6736 29.3564 29.6783C29.3394 29.6839 29.3223 29.6898 29.3053 29.6956C29.3025 29.6967 29.2995 29.6976 29.2967 29.6986C29.2736 29.7066 29.2506 29.7146 29.2273 29.723C29.2249 29.7239 29.2223 29.7248 29.22 29.7256C29.2176 29.7263 29.2154 29.7271 29.2131 29.728C29.2064 29.7304 29.1999 29.7327 29.1932 29.7351C29.1786 29.7405 29.1641 29.7457 29.1495 29.7511C29.1454 29.7526 29.1415 29.7541 29.1374 29.7556C29.1243 29.7606 29.1111 29.7653 29.098 29.7705C29.0812 29.7768 29.0646 29.783 29.0478 29.7897C29.035 29.7947 29.0221 29.7997 29.0094 29.8046C28.985 29.8141 28.9605 29.8239 28.9361 29.8338C28.9055 29.8463 28.8747 29.8588 28.8441 29.8718L28.8385 29.8742C28.8137 29.8845 28.7891 29.8951 28.7643 29.9059C28.7523 29.9111 28.7402 29.9163 28.7281 29.9217C28.721 29.9247 28.7141 29.9279 28.707 29.9309C28.6995 29.9344 28.6917 29.9378 28.6842 29.9411C28.6307 29.965 28.5771 29.9897 28.5232 30.0151C28.4887 30.0313 28.454 30.048 28.4193 30.0652L28.4173 30.0661C28.3956 30.0769 28.3738 30.0877 28.3518 30.0985C28.3488 30.1 28.3456 30.1017 28.3423 30.1032C28.3238 30.1127 28.3051 30.1222 28.2863 30.1317C28.2811 30.1343 28.2757 30.1369 28.2706 30.1397C28.2583 30.146 28.2458 30.1524 28.2333 30.1589C28.2066 30.1727 28.1796 30.187 28.1527 30.2012C28.1436 30.206 28.1348 30.2107 28.1257 30.2157C28.1197 30.2189 28.1135 30.2222 28.1074 30.2254C28.1025 30.228 28.0975 30.2308 28.0925 30.2334C28.0589 30.2515 28.0253 30.2701 27.9917 30.2889L27.9895 30.29C27.9542 30.3096 27.919 30.3295 27.8837 30.3498V30.35L27.8815 30.3511C23.9066 32.6342 20.673 38.2067 20.6724 42.7743" fill="var(--fill-0, #DBAF00)"/>
<path id="Vector_2" fill-rule="evenodd" clip-rule="evenodd" d="M33.2287 28.6217C33.3563 28.9939 33.5628 29.3342 33.834 29.6191C34.1052 29.9039 34.4346 30.1267 34.7998 30.272C34.833 30.2842 34.8619 30.3059 34.8829 30.3344C34.9039 30.3628 34.9161 30.3968 34.918 30.4322V30.5366C34.9161 30.572 34.9039 30.606 34.8829 30.6345C34.8619 30.6629 34.833 30.6846 34.7998 30.6968C34.4307 30.8447 34.0983 31.0715 33.8258 31.3613C33.5532 31.6512 33.3471 31.9971 33.2218 32.375C33.2103 32.4106 33.1881 32.4418 33.1582 32.4642C33.1284 32.4867 33.0923 32.4993 33.0549 32.5004C33.0173 32.5004 32.9808 32.4881 32.9507 32.4655C32.9206 32.4429 32.8986 32.4112 32.8881 32.375C32.757 31.9808 32.538 31.6217 32.2477 31.3249C31.9575 31.0281 31.6035 30.8014 31.2128 30.662C31.1772 30.6505 31.1461 30.6282 31.1237 30.5983C31.1013 30.5684 31.0887 30.5323 31.0876 30.4949V30.4949C31.0882 30.4583 31.0998 30.4228 31.1209 30.3929C31.142 30.3631 31.1716 30.3404 31.2058 30.3277C31.5926 30.1907 31.9435 29.9681 32.2324 29.6763C32.5213 29.3845 32.7407 29.0311 32.8742 28.6425C32.8865 28.6075 32.9089 28.5768 32.9386 28.5545C32.9683 28.5322 33.004 28.5192 33.041 28.5172C33.0794 28.5122 33.1183 28.5197 33.1521 28.5385C33.1858 28.5573 33.2127 28.5864 33.2287 28.6217V28.6217Z" fill="var(--fill-0, white)"/>
</g>
<g id="coin">
<path id="Vector_3" fill-rule="evenodd" clip-rule="evenodd" d="M20.5617 1.91853L18.5523 0.738061C16.5882 -0.412145 13.8612 -0.260802 10.8471 1.49477L12.8565 2.67525C15.8706 0.91967 18.5976 0.768327 20.5617 1.91853Z" fill="var(--fill-0, #FFEDA3)"/>
<path id="Vector_4" fill-rule="evenodd" clip-rule="evenodd" d="M3.14253 27.1241L5.15193 28.3046C3.21052 27.1695 2.00941 24.7556 2.00941 21.3428C2.00941 14.4567 6.8667 6.08747 12.8571 2.65199L10.8477 1.47152C4.8573 4.91457 2.6226e-06 13.2763 2.6226e-06 20.1624C2.6226e-06 23.5827 1.20111 25.9891 3.14253 27.1241Z" fill="var(--fill-0, #FFD633)"/>
<path id="Vector_5" fill-rule="evenodd" clip-rule="evenodd" d="M2.01697 21.3428C2.01697 24.7556 3.21051 27.1695 5.15193 28.3046L3.14252 27.1241C1.20111 25.989 2.6226e-06 23.5827 2.6226e-06 20.1624L2.01697 21.3428Z" fill="var(--fill-0, #DBAF00)"/>
<path id="Vector_6" fill-rule="evenodd" clip-rule="evenodd" d="M12.857 24.3097C17.2686 21.7747 20.8568 15.5848 20.8568 10.5148C20.8568 5.44478 17.2686 3.38651 12.857 5.9215C8.44539 8.4565 4.85718 14.6389 4.85718 19.7088C4.85718 24.7788 8.44539 26.8522 12.857 24.3097ZM12.857 2.65249C18.8474 -0.790559 23.7047 2.00173 23.6972 8.88783C23.6896 15.7739 18.8474 24.1356 12.857 27.5711C6.86658 31.0066 2.00928 28.2219 2.00928 21.3433C2.00928 14.4648 6.86658 6.08798 12.857 2.63737V2.65249Z" fill="var(--fill-0, #F5C918)"/>
<path id="Vector_7" fill-rule="evenodd" clip-rule="evenodd" d="M12.8577 24.302C17.2693 21.767 20.8575 15.5846 20.8575 10.5146C20.8575 5.44465 17.2693 3.38637 12.8577 5.9138V2.63724C18.8481 -0.805813 23.7054 1.98646 23.6979 8.87256C23.6903 15.7587 18.8481 24.1279 12.8577 27.6088V24.302Z" fill="var(--fill-0, #FFEDA3)"/>
<path id="Vector_8" fill-rule="evenodd" clip-rule="evenodd" d="M12.857 5.92191C8.44539 8.44933 4.85718 14.6393 4.85718 19.7092C4.85718 24.7792 8.44539 26.8375 12.857 24.3101C17.2686 21.7827 20.8568 15.5852 20.8568 10.5152C20.8568 5.44518 17.2686 3.39448 12.857 5.92191Z" fill="var(--fill-0, #DBAF00)"/>
<path id="Vector_9" fill-rule="evenodd" clip-rule="evenodd" d="M19.8739 5.83866C19.9138 5.83816 19.9529 5.85032 19.9855 5.87344C20.018 5.89655 20.0425 5.9294 20.0552 5.96729C20.2032 6.38884 20.4425 6.77235 20.756 7.09028C21.0694 7.40821 21.4493 7.65265 21.8682 7.8061C21.9055 7.81746 21.938 7.84052 21.9611 7.87186C21.9843 7.90321 21.9967 7.94117 21.9966 7.98015C21.996 8.01987 21.9835 8.05849 21.9605 8.0909C21.9376 8.12332 21.9054 8.14801 21.8682 8.16175C21.4425 8.31351 21.0572 8.56085 20.7416 8.88482C20.426 9.20879 20.1887 9.6008 20.0477 10.0308C20.034 10.0681 20.0093 10.1003 19.9769 10.1233C19.9446 10.1463 19.906 10.1589 19.8664 10.1595C19.8265 10.16 19.7874 10.1478 19.7548 10.1247C19.7223 10.1016 19.6978 10.0687 19.6851 10.0308C19.5459 9.61973 19.32 9.24344 19.0228 8.92747C18.7257 8.61151 18.3641 8.36327 17.9627 8.1996C17.9275 8.186 17.8972 8.16215 17.8757 8.13113C17.8541 8.10011 17.8424 8.06333 17.8419 8.02555V7.93475C17.8408 7.89568 17.8519 7.85723 17.8735 7.82471C17.8952 7.79219 17.9263 7.7672 17.9627 7.75314C18.3596 7.59519 18.7176 7.35312 19.0123 7.04356C19.3069 6.73401 19.5313 6.36429 19.67 5.95973C19.6862 5.92005 19.7148 5.88675 19.7517 5.86489C19.7885 5.84304 19.8314 5.83382 19.8739 5.83866V5.83866Z" fill="var(--fill-0, white)"/>
</g>
</g>
</svg>
