<svg preserveAspectRatio="none" width="100%" height="100%" overflow="visible" style="display: block;" viewBox="0 0 75.4277 48.1257" fill="none" xmlns="http://www.w3.org/2000/svg">
<g id="Card">
<path id="Vector" opacity="0.2" d="M45.4963 4.86798L0.599156 30.8316C0.438814 30.9006 0.299209 31.0103 0.194131 31.1498C0.0890518 31.2894 0.0221456 31.454 0 31.6274C0.00885566 31.7585 0.0529379 31.8848 0.127606 31.9928C0.202273 32.1008 0.304727 32.1866 0.424112 32.2411L27.4944 47.88C27.8808 48.0575 28.3036 48.1409 28.7284 48.1234C29.1531 48.1058 29.5677 47.9877 29.9382 47.7788L74.8286 21.8152C74.9898 21.7456 75.13 21.6349 75.2351 21.4941C75.3403 21.3532 75.4067 21.1872 75.4277 21.0127C75.4239 20.8811 75.3817 20.7535 75.3063 20.6456C75.2309 20.5378 75.1257 20.4544 75.0036 20.4057L47.9333 4.74659C47.5463 4.5732 47.1238 4.49383 46.7003 4.51492C46.2768 4.53601 45.8643 4.65698 45.4963 4.86798Z" fill="var(--fill-0, #CBCBCB)"/>
<path id="Vector_2" d="M45.4963 0.356387L0.599156 26.32C0.438814 26.389 0.299209 26.4987 0.194131 26.6383C0.0890518 26.7778 0.0221456 26.9424 0 27.1158C0.00885566 27.2469 0.0529379 27.3732 0.127606 27.4812C0.202273 27.5893 0.304727 27.675 0.424112 27.7295L27.4944 43.3684C27.8808 43.546 28.3036 43.6294 28.7284 43.6118C29.1531 43.5942 29.5677 43.4761 29.9382 43.2672L74.8285 17.3036C74.9898 17.234 75.13 17.1233 75.2351 16.9825C75.3403 16.8417 75.4067 16.6757 75.4277 16.5011C75.4239 16.3695 75.3817 16.2419 75.3063 16.134C75.2309 16.0262 75.1257 15.9428 75.0036 15.8941L47.9333 0.235003C47.5463 0.0616113 47.1238 -0.0177648 46.7003 0.00332902C46.2768 0.0244228 45.8643 0.145385 45.4963 0.356387Z" fill="var(--fill-0, #005DAD)"/>
<path id="Vector_3" d="M74.8285 17.3236L29.9382 43.2872C29.5677 43.4961 29.1531 43.6142 28.7284 43.6318C28.3036 43.6494 27.8808 43.566 27.4944 43.3884L0.424112 27.7293C0.304727 27.6748 0.202273 27.589 0.127606 27.481C0.0529379 27.373 0.00885566 27.2467 0 27.1156V27.79C0.00885566 27.9211 0.0529379 28.0473 0.127606 28.1554C0.202273 28.2634 0.304727 28.3492 0.424112 28.4037L27.4944 44.0425C27.8816 44.217 28.304 44.2986 28.7282 44.2811C29.1524 44.2635 29.5666 44.1472 29.9382 43.9414L74.8285 17.971C74.9897 17.9032 75.13 17.7938 75.2352 17.654C75.3405 17.5143 75.4069 17.3491 75.4277 17.1752V16.5346C75.4045 16.7067 75.337 16.8699 75.232 17.0082C75.127 17.1465 74.988 17.2552 74.8285 17.3236V17.3236Z" fill="var(--fill-0, #00315C)"/>
<g id="chip">
<path id="Vector_4" d="M9.61991 26.2039L6.93376 27.7617L7.9032 28.3215L10.5894 26.7636L9.61991 26.2039Z" fill="var(--fill-0, white)"/>
<path id="Vector_5" d="M11.802 27.4653L10.8325 26.9055L8.14638 28.4633L9.11582 29.0231L11.802 27.4653Z" fill="var(--fill-0, white)"/>
<path id="Vector_6" d="M11.68 24.7402L14.3728 23.1824L14.2584 23.115C13.9941 22.9821 13.7025 22.9129 13.4068 22.9129C13.1111 22.9129 12.8194 22.9821 12.5552 23.115L10.7172 24.1805L11.68 24.7402Z" fill="var(--fill-0, white)"/>
<path id="Vector_7" d="M13.0119 28.1669L12.0425 27.6072L9.35636 29.165L10.3258 29.7247L13.0119 28.1669Z" fill="var(--fill-0, white)"/>
<path id="Vector_8" d="M8.64944 25.3614L9.61888 25.9279L9.86123 26.0628L10.8307 26.6293L11.073 26.7641L12.0425 27.3306L12.2848 27.4655L13.2543 28.032L13.4966 28.1668L14.4661 28.7266L16.2838 27.6813L15.3143 27.1148L15.072 26.9799L14.1025 26.4202L13.8602 26.2786L12.8907 25.7188L12.6484 25.5772L11.6789 25.0175L11.4366 24.8759L10.4671 24.3161L8.64944 25.3614Z" fill="var(--fill-0, white)"/>
<path id="Vector_9" d="M13.2645 28.3088L10.5716 29.8666L10.6861 29.934C10.9504 30.0669 11.242 30.1361 11.5377 30.1361C11.8334 30.1361 12.125 30.0669 12.3893 29.934L14.234 28.8685L13.2645 28.3088Z" fill="var(--fill-0, white)"/>
<path id="Vector_10" d="M17.0307 24.7186L14.3445 26.2764L15.314 26.8361L18.0001 25.2783L17.0307 24.7186Z" fill="var(--fill-0, white)"/>
<path id="Vector_11" d="M15.5386 26.9792L16.5081 27.539L18.3527 26.4734C18.4565 26.4407 18.5473 26.3757 18.6117 26.2877C18.6761 26.1998 18.7108 26.0936 18.7108 25.9845C18.7108 25.8754 18.6761 25.7692 18.6117 25.6813C18.5473 25.5934 18.4565 25.5283 18.3527 25.4956L18.2382 25.4281L15.5386 26.9792Z" fill="var(--fill-0, white)"/>
<path id="Vector_12" d="M9.37716 26.0673L8.40772 25.5076L6.56982 26.5933C6.09856 26.8631 6.10529 27.2677 6.56982 27.5712L6.68427 27.6386L9.37716 26.0673Z" fill="var(--fill-0, white)"/>
<path id="Vector_13" d="M13.1346 25.5748L14.104 26.1345L16.7901 24.5767L15.8207 24.0169L13.1346 25.5748Z" fill="var(--fill-0, white)"/>
<path id="Vector_14" d="M11.9193 24.8731L12.8887 25.4329L15.5749 23.8751L14.6054 23.3153L11.9193 24.8731Z" fill="var(--fill-0, white)"/>
</g>
<path id="Vector_15" d="M58.3049 10.274C58.2643 10.2948 58.2214 10.3107 58.177 10.3212C58.0978 10.3426 58.0144 10.3427 57.9351 10.3214C57.8559 10.3001 57.7837 10.2581 57.726 10.1998C57.3525 9.63573 56.8462 9.1725 56.2516 8.85103C55.5301 8.44533 54.7481 8.15842 53.9357 8.0013C53.7539 7.96084 53.6597 7.84621 53.727 7.73831C53.7838 7.68055 53.8548 7.63888 53.9328 7.61756C54.0109 7.59624 54.0932 7.596 54.1713 7.6169C55.0754 7.79589 55.9456 8.11681 56.7498 8.56778C57.4093 8.92206 57.9712 9.43403 58.3857 10.0582C58.4328 10.1391 58.3722 10.22 58.3049 10.274ZM55.9688 10.6449C55.695 10.2297 55.3226 9.88908 54.885 9.65354C54.3496 9.35294 53.7702 9.139 53.1682 9.01962C53.0901 8.99872 53.0078 8.99894 52.9297 9.02026C52.8517 9.04159 52.7807 9.08325 52.7239 9.14101C52.6566 9.24891 52.7239 9.36356 52.9326 9.40403C53.4423 9.50396 53.933 9.68374 54.3868 9.93677C54.7592 10.1394 55.0778 10.4284 55.3158 10.7797C55.3717 10.8387 55.4427 10.8812 55.5211 10.9026C55.5994 10.924 55.6821 10.9235 55.7601 10.9012C55.8057 10.8949 55.8493 10.8788 55.8881 10.8539C55.9823 10.8 56.016 10.7191 55.9688 10.6179V10.6449ZM57.1806 10.3549C56.8395 9.83751 56.3773 9.41153 55.8342 9.11403C55.157 8.73433 54.4225 8.46783 53.6597 8.32501C53.5806 8.30208 53.4968 8.30127 53.4173 8.32267C53.3378 8.34406 53.2656 8.38685 53.2086 8.4464C53.148 8.5543 53.2086 8.66895 53.4241 8.70266C54.084 8.82652 54.7202 9.05413 55.3091 9.37705C55.7914 9.63804 56.2027 10.0131 56.5074 10.4695C56.5638 10.5279 56.6348 10.57 56.713 10.5913C56.7911 10.6127 56.8736 10.6125 56.9518 10.5909C56.9991 10.5835 57.0447 10.5675 57.0864 10.5437C57.1874 10.51 57.2278 10.4291 57.1806 10.3549V10.3549Z" fill="var(--fill-0, white)"/>
<g id="number">
<path id="Vector_16" d="M25.2817 38.7803L25.6991 38.5375L24.0699 37.5934L23.6525 37.8361C23.6083 37.8476 23.562 37.8476 23.5178 37.8361C23.4718 37.8502 23.4225 37.8502 23.3765 37.8361C23.3598 37.8312 23.3452 37.8209 23.3348 37.807C23.3244 37.793 23.3187 37.776 23.3187 37.7586C23.3187 37.7412 23.3244 37.7242 23.3348 37.7102C23.3452 37.6963 23.3598 37.686 23.3765 37.6811L24.0497 37.2832L25.9549 38.3824L26.2309 38.2273L25.6587 37.8901C25.642 37.8838 25.6274 37.8728 25.6166 37.8585C25.6059 37.8441 25.5995 37.827 25.5981 37.8092C25.6 37.7933 25.606 37.7781 25.6154 37.7651C25.6248 37.7521 25.6374 37.7418 25.6519 37.735C25.6945 37.7095 25.7439 37.6978 25.7933 37.7013C25.8407 37.6968 25.8882 37.7087 25.928 37.735L26.6483 38.1464C26.6638 38.1537 26.677 38.1651 26.6864 38.1793C26.6959 38.1936 26.7014 38.2102 26.7022 38.2273C26.6997 38.2439 26.6935 38.2598 26.6842 38.2738C26.6749 38.2878 26.6627 38.2995 26.6483 38.3082L25.5375 38.9489C25.4931 38.969 25.4449 38.9794 25.3961 38.9794C25.3474 38.9794 25.2992 38.969 25.2547 38.9489C25.2402 38.9421 25.2276 38.9318 25.2182 38.9188C25.2088 38.9058 25.2028 38.8906 25.2009 38.8747C25.2007 38.8518 25.2087 38.8297 25.2236 38.8123C25.2384 38.7949 25.2591 38.7836 25.2817 38.7803Z" fill="var(--fill-0, white)"/>
<path id="Vector_17" d="M28.6415 37.1543L27.3893 37.8826L26.4333 37.3296C26.4019 37.3148 26.375 37.2921 26.3549 37.2637C26.3349 37.2354 26.3225 37.2024 26.3189 37.1678C26.3189 37.1004 26.3525 37.0532 26.4333 37.006L27.2614 36.5272L26.5881 36.136L25.612 36.7025C25.5682 36.7248 25.5197 36.7364 25.4706 36.7362C25.4235 36.7373 25.377 36.7256 25.3359 36.7025C25.3192 36.6961 25.3047 36.6852 25.2939 36.6708C25.2832 36.6565 25.2767 36.6394 25.2754 36.6216C25.2754 36.6216 25.2753 36.5676 25.3359 36.5406L26.3121 35.9742C26.3995 35.929 26.4965 35.9059 26.5949 35.9067C26.6913 35.9034 26.7868 35.9267 26.8709 35.9742L27.5441 36.3653C27.5763 36.379 27.604 36.4014 27.6243 36.43C27.6445 36.4585 27.6563 36.4922 27.6586 36.5272C27.655 36.5617 27.6425 36.5947 27.6225 36.6231C27.6024 36.6514 27.5754 36.6741 27.5441 36.689L26.7093 37.1678L27.3825 37.559L28.3587 36.9992C28.3984 36.9729 28.4459 36.961 28.4934 36.9655C28.5428 36.962 28.5921 36.9737 28.6347 36.9992C28.6514 37.0042 28.666 37.0144 28.6764 37.0284C28.6868 37.0424 28.6924 37.0593 28.6924 37.0768C28.6924 37.0942 28.6868 37.1111 28.6764 37.1251C28.666 37.1391 28.6514 37.1493 28.6347 37.1543H28.6415Z" fill="var(--fill-0, white)"/>
<path id="Vector_18" d="M28.8313 34.8438L29.3497 35.1405C29.4709 35.2079 29.5315 35.2889 29.5315 35.3765C29.67 35.3715 29.8072 35.4042 29.9287 35.471L30.4673 35.7812C30.5022 35.7914 30.5329 35.8127 30.5548 35.8419C30.5766 35.871 30.5885 35.9065 30.5885 35.943C30.5885 35.9795 30.5766 36.015 30.5548 36.0442C30.5329 36.0734 30.5022 36.0947 30.4673 36.1049L29.4978 36.6646C29.454 36.6869 29.4056 36.6985 29.3565 36.6983C29.3094 36.6994 29.2629 36.6877 29.2218 36.6646C29.2051 36.6583 29.1905 36.6473 29.1798 36.633C29.1691 36.6186 29.1626 36.6015 29.1612 36.5837C29.1612 36.5837 29.1612 36.5297 29.2218 36.5028L30.1845 35.943L29.6459 35.6328C29.5996 35.6205 29.5509 35.6205 29.5046 35.6328C29.4609 35.6179 29.4136 35.6179 29.3699 35.6328L28.8179 35.9498C28.7741 35.9721 28.7256 35.9836 28.6765 35.9835C28.6295 35.9836 28.5833 35.972 28.5419 35.9498C28.5251 35.9434 28.5106 35.9324 28.4998 35.9181C28.4891 35.9038 28.4827 35.8867 28.4813 35.8688C28.4813 35.8688 28.4813 35.8149 28.5419 35.7879L29.0939 35.471C29.1095 35.463 29.1231 35.4516 29.1336 35.4376C29.1441 35.4235 29.1513 35.4073 29.1545 35.39C29.1531 35.3722 29.1467 35.3551 29.1359 35.3408C29.1252 35.3264 29.1106 35.3154 29.0939 35.3091L28.5621 34.9989L27.5792 35.5654C27.5366 35.5908 27.4872 35.6026 27.4378 35.5991C27.3904 35.6026 27.3433 35.5907 27.3031 35.5654C27.2864 35.559 27.2718 35.5481 27.2611 35.5337C27.2504 35.5194 27.2439 35.5023 27.2426 35.4844C27.2426 35.4844 27.2425 35.4305 27.3031 35.4103L28.2793 34.837C28.3675 34.795 28.4644 34.7742 28.5621 34.7764C28.6565 34.7721 28.7501 34.7955 28.8313 34.8438V34.8438Z" fill="var(--fill-0, white)"/>
<path id="Vector_19" d="M32.0806 35.0118L31.5017 34.6746L30.6736 35.1534L29.3271 34.3846C29.3112 34.378 29.2976 34.3667 29.288 34.3523C29.2784 34.3379 29.2733 34.321 29.2733 34.3037C29.2733 34.2864 29.2784 34.2695 29.288 34.2551C29.2976 34.2407 29.3112 34.2294 29.3271 34.2228C29.371 34.2008 29.4195 34.1894 29.4685 34.1894C29.5176 34.1894 29.566 34.2008 29.6099 34.2228L30.6601 34.8297L31.2122 34.5128L30.3976 34.0474C30.3693 34.0276 30.348 33.9993 30.337 33.9665C30.3384 33.9487 30.3448 33.9316 30.3555 33.9173C30.3663 33.9029 30.3809 33.8919 30.3976 33.8856C30.4386 33.8625 30.4851 33.8508 30.5322 33.8519C30.5813 33.8517 30.6298 33.8633 30.6736 33.8856L31.4815 34.3577C31.524 34.3322 31.5734 34.3204 31.6228 34.3239C31.6702 34.3195 31.7178 34.3314 31.7575 34.3577C31.7742 34.364 31.7888 34.375 31.7995 34.3893C31.8102 34.4036 31.8167 34.4207 31.8181 34.4386C31.8161 34.4545 31.8102 34.4697 31.8008 34.4827C31.7913 34.4957 31.7788 34.506 31.7642 34.5128L32.3432 34.85C32.3586 34.8573 32.3718 34.8687 32.3813 34.8829C32.3908 34.8972 32.3963 34.9138 32.3971 34.9309C32.3971 34.9646 32.397 34.9848 32.3432 35.0118C32.2994 35.0341 32.2509 35.0457 32.2018 35.0455C32.1593 35.0443 32.1177 35.0327 32.0806 35.0118V35.0118Z" fill="var(--fill-0, white)"/>
<path id="Vector_20" d="M35.9876 32.7375L35.4086 32.4003L34.5873 32.8791L33.2408 32.1103C33.2194 32.1103 33.1989 32.1018 33.1837 32.0866C33.1686 32.0714 33.16 32.0509 33.16 32.0294C33.16 32.0079 33.1686 31.9874 33.1837 31.9722C33.1989 31.957 33.2194 31.9485 33.2408 31.9485C33.2819 31.9254 33.3284 31.9137 33.3755 31.9148C33.4246 31.9146 33.4731 31.9262 33.5168 31.9485L34.5671 32.5622L35.1191 32.2385L34.3113 31.7731C34.2945 31.7668 34.28 31.7558 34.2692 31.7415C34.2585 31.7272 34.2521 31.7101 34.2507 31.6922C34.2497 31.6747 34.2544 31.6573 34.2641 31.6427C34.2738 31.6281 34.288 31.6171 34.3045 31.6113C34.3483 31.589 34.3968 31.5774 34.4459 31.5776C34.493 31.5765 34.5395 31.5882 34.5805 31.6113L35.3951 32.0833C35.4362 32.0602 35.4827 32.0486 35.5298 32.0496C35.5789 32.0495 35.6274 32.061 35.6712 32.0833C35.6866 32.0907 35.6998 32.1021 35.7093 32.1163C35.7188 32.1306 35.7242 32.1472 35.725 32.1643C35.7225 32.1809 35.7164 32.1968 35.7071 32.2107C35.6978 32.2247 35.6855 32.2365 35.6712 32.2452L36.2501 32.5757C36.2656 32.583 36.2788 32.5944 36.2883 32.6086C36.2978 32.6229 36.3032 32.6395 36.304 32.6566C36.305 32.6741 36.3003 32.6915 36.2906 32.7061C36.2808 32.7207 36.2667 32.7317 36.2501 32.7375C36.2088 32.7598 36.1625 32.7714 36.1155 32.7712C36.0709 32.7694 36.0273 32.7578 35.9876 32.7375V32.7375Z" fill="var(--fill-0, white)"/>
<path id="Vector_21" d="M36.9342 32.0512L35.3117 31.0935C35.2818 31.0794 35.256 31.0577 35.2371 31.0304C35.2182 31.0032 35.2068 30.9715 35.204 30.9384C35.2073 30.9064 35.2189 30.8757 35.2379 30.8497C35.2568 30.8236 35.2823 30.803 35.3117 30.7901L36.1735 30.291C36.2539 30.2473 36.3446 30.2263 36.436 30.2303C36.5273 30.2279 36.6176 30.2488 36.6986 30.291L38.3547 31.2486C38.4288 31.2958 38.4624 31.3431 38.4624 31.4038C38.4611 31.4372 38.4503 31.4696 38.4312 31.4971C38.4121 31.5246 38.3856 31.546 38.3547 31.5588L37.4997 32.0512C37.4205 32.0985 37.3293 32.122 37.2372 32.1186C37.1318 32.1256 37.0267 32.1022 36.9342 32.0512V32.0512ZM38.0383 31.3768L36.4091 30.4326L35.5676 30.9182L37.2035 31.8623L38.0383 31.3768Z" fill="var(--fill-0, white)"/>
<path id="Vector_22" d="M39.3995 30.6157L40.0391 30.2515L39.3659 29.8537L38.5311 30.3392L37.3327 29.6244L38.3022 29.0646C38.3435 29.0422 38.3898 29.0305 38.4368 29.0305C38.4838 29.0305 38.5301 29.0422 38.5715 29.0646C38.6119 29.0646 38.632 29.1118 38.632 29.1456C38.6312 29.1627 38.6258 29.1793 38.6163 29.1935C38.6068 29.2078 38.5937 29.2192 38.5782 29.2265L37.905 29.6244L38.5782 30.0155L39.1302 29.6986C39.2136 29.6494 39.3096 29.6259 39.4062 29.6311C39.5028 29.627 39.5985 29.6504 39.6823 29.6986L40.3555 30.0897C40.388 30.1015 40.4161 30.1231 40.4359 30.1514C40.4557 30.1798 40.4664 30.2136 40.4664 30.2482C40.4664 30.2828 40.4557 30.3166 40.4359 30.3449C40.4161 30.3733 40.388 30.3948 40.3555 30.4067L39.7159 30.7776C39.6472 30.8175 39.572 30.8449 39.4938 30.8585L39.1976 30.9259C39.1636 30.9408 39.1269 30.9485 39.0898 30.9485C39.0528 30.9485 39.0161 30.9408 38.9821 30.9259C38.9668 30.9176 38.9535 30.906 38.943 30.8921C38.9326 30.8781 38.9252 30.8621 38.9215 30.845C38.9235 30.8291 38.9294 30.8139 38.9389 30.8009C38.9483 30.7879 38.9609 30.7776 38.9754 30.7708L39.0966 30.7304L39.3524 30.6697C39.3704 30.6539 39.3863 30.6357 39.3995 30.6157Z" fill="var(--fill-0, white)"/>
<path id="Vector_23" d="M39.2049 28.819L39.0905 28.7516C39.0737 28.7453 39.0592 28.7343 39.0484 28.7199C39.0377 28.7056 39.0313 28.6885 39.0299 28.6707C39.0299 28.6707 39.0299 28.6167 39.0905 28.5897L40.3359 27.8681L41.1842 28.3604C41.2313 28.3604 41.2515 28.4212 41.2448 28.4549L41.1775 29.0011L41.8507 29.372C41.8674 29.3784 41.882 29.3893 41.8927 29.4037C41.9034 29.418 41.9099 29.4351 41.9113 29.4529C41.9105 29.4701 41.905 29.4866 41.8955 29.5009C41.8861 29.5151 41.8729 29.5265 41.8574 29.5339C41.8135 29.5558 41.7651 29.5673 41.716 29.5673C41.667 29.5673 41.6186 29.5558 41.5747 29.5339L40.9014 29.1293C40.8476 29.1293 40.8207 29.0685 40.8274 29.0348L40.9014 28.4886L40.3898 28.1919L39.555 28.6707C39.6156 28.7313 39.6088 28.7786 39.555 28.819C39.5139 28.8422 39.4674 28.8538 39.4204 28.8528C39.3468 28.868 39.2703 28.856 39.2049 28.819V28.819Z" fill="var(--fill-0, white)"/>
<path id="Vector_24" d="M44.7735 27.506L44.1003 27.1148C44.0653 27.1046 44.0346 27.0833 44.0128 27.0542C43.9909 27.025 43.9791 26.9895 43.9791 26.953C43.9791 26.9165 43.9909 26.881 44.0128 26.8519C44.0346 26.8227 44.0653 26.8014 44.1003 26.7912L43.2857 26.3191C43.2711 26.3123 43.2586 26.302 43.2491 26.289C43.2397 26.276 43.2338 26.2608 43.2318 26.2449C43.2308 26.2274 43.2355 26.21 43.2453 26.1954C43.255 26.1808 43.2692 26.1698 43.2857 26.164L43.8445 25.8403C43.887 25.8148 43.9364 25.803 43.9858 25.8065C44.0332 25.8021 44.0807 25.814 44.1205 25.8403L44.9351 26.3123C45.0203 26.268 45.115 26.2449 45.2111 26.2449C45.3072 26.2449 45.4018 26.268 45.4871 26.3123L46.1603 26.7035C46.1928 26.7153 46.2209 26.7369 46.2407 26.7652C46.2606 26.7936 46.2712 26.8273 46.2712 26.862C46.2712 26.8966 46.2606 26.9304 46.2407 26.9587C46.2209 26.9871 46.1928 27.0086 46.1603 27.0204L45.3255 27.506C45.2389 27.5527 45.1409 27.5737 45.0428 27.5667C44.9495 27.5685 44.8571 27.5477 44.7735 27.506ZM44.3763 26.953L45.0495 27.3441L45.8843 26.8586L45.2111 26.4674L44.3763 26.953ZM43.7031 26.2449L44.3763 26.636L44.6658 26.4674L43.9926 26.0763L43.7031 26.2449Z" fill="var(--fill-0, white)"/>
<path id="Vector_25" d="M47.7879 25.926L47.2089 25.5888L46.3809 26.0676L45.0344 25.2988C45.0177 25.2925 45.0031 25.2815 44.9924 25.2672C44.9817 25.2529 44.9752 25.2358 44.9738 25.2179C44.9746 25.2008 44.9801 25.1842 44.9896 25.17C44.999 25.1557 45.0122 25.1443 45.0277 25.137C45.0738 25.1229 45.123 25.1229 45.1691 25.137C45.2156 25.1261 45.264 25.1261 45.3105 25.137L46.3607 25.7439L46.9127 25.427L46.1049 24.9616C46.0645 24.9347 46.0443 24.9077 46.0443 24.8807C46.0443 24.8807 46.0443 24.82 46.0981 24.7998C46.1441 24.7853 46.1935 24.7853 46.2395 24.7998C46.2836 24.7881 46.33 24.7881 46.3741 24.7998L47.1887 25.2719C47.2285 25.2456 47.276 25.2337 47.3234 25.2381C47.3728 25.2346 47.4222 25.2464 47.4648 25.2719C47.4814 25.2769 47.4961 25.2871 47.5065 25.3011C47.5169 25.315 47.5225 25.332 47.5225 25.3494C47.5225 25.3669 47.5169 25.3838 47.5065 25.3978C47.4961 25.4118 47.4814 25.422 47.4648 25.427L48.0437 25.7642C48.0603 25.77 48.0744 25.781 48.0841 25.7956C48.0939 25.8102 48.0986 25.8276 48.0976 25.8451C48.0951 25.8617 48.089 25.8776 48.0796 25.8916C48.0703 25.9055 48.0581 25.9173 48.0437 25.926C47.9972 25.9369 47.9489 25.9369 47.9024 25.926C47.8646 25.9333 47.8257 25.9333 47.7879 25.926V25.926Z" fill="var(--fill-0, white)"/>
<path id="Vector_26" d="M48.7155 25.2402L47.0594 24.2758C47.0294 24.2617 47.0036 24.24 46.9847 24.2128C46.9658 24.1855 46.9544 24.1538 46.9516 24.1207C46.9529 24.0873 46.9638 24.0549 46.9828 24.0274C47.0019 23.9999 47.0285 23.9785 47.0594 23.9656L47.9211 23.4733C48.0015 23.4296 48.0922 23.4087 48.1836 23.4126C48.2749 23.4102 48.3652 23.4311 48.4462 23.4733L50.1023 24.4309C50.1332 24.4438 50.1597 24.4652 50.1788 24.4927C50.1979 24.5202 50.2087 24.5526 50.21 24.586C50.21 24.6467 50.1764 24.694 50.1023 24.7412L49.2473 25.2335C49.1664 25.2757 49.076 25.2965 48.9848 25.2942C48.8919 25.2992 48.7993 25.2806 48.7155 25.2402V25.2402ZM49.8195 24.5658L48.1904 23.6284L47.3488 24.1072L48.9848 25.0514L49.8195 24.5658Z" fill="var(--fill-0, white)"/>
<path id="Vector_27" d="M50.4323 22.3469L50.9507 22.6504C51.0719 22.7178 51.1324 22.7987 51.1324 22.8797C51.269 22.8801 51.4033 22.9149 51.5229 22.9808L52.0615 23.2911C52.094 23.3029 52.1221 23.3244 52.1419 23.3528C52.1617 23.3811 52.1724 23.4149 52.1724 23.4495C52.1724 23.4841 52.1617 23.5179 52.1419 23.5463C52.1221 23.5746 52.094 23.5962 52.0615 23.608L51.0921 24.1745C51.0456 24.1854 50.9972 24.1854 50.9507 24.1745C50.9065 24.1854 50.8603 24.1854 50.816 24.1745C50.7756 24.1745 50.7554 24.1273 50.7554 24.0936C50.7568 24.0757 50.7633 24.0586 50.774 24.0443C50.7847 24.0299 50.7993 24.019 50.816 24.0126L51.7855 23.4529L51.2402 23.1427C51.2004 23.1164 51.1529 23.1045 51.1055 23.109C51.059 23.098 51.0106 23.098 50.9641 23.109L50.4121 23.4327C50.3656 23.4436 50.3172 23.4436 50.2707 23.4327C50.2264 23.4426 50.1804 23.4426 50.1361 23.4327C50.0957 23.4057 50.0755 23.3787 50.0755 23.3517C50.0769 23.3339 50.0833 23.3168 50.0941 23.3025C50.1048 23.2881 50.1194 23.2772 50.1361 23.2708L50.6881 22.9471C50.7285 22.9471 50.7487 22.8999 50.7487 22.8729C50.7473 22.8551 50.7409 22.838 50.7302 22.8237C50.7194 22.8093 50.7048 22.7983 50.6881 22.792L50.1563 22.4818L49.1734 23.0483C49.129 23.0582 49.0831 23.0582 49.0387 23.0483C48.9922 23.0592 48.9438 23.0592 48.8973 23.0483C48.8806 23.0419 48.8661 23.0309 48.8553 23.0166C48.8446 23.0023 48.8382 22.9852 48.8368 22.9673C48.8368 22.9673 48.8368 22.9134 48.8973 22.8864L49.8803 22.3199C49.9653 22.2749 50.0601 22.2517 50.1563 22.2525C50.2541 22.2634 50.3483 22.2956 50.4323 22.3469V22.3469Z" fill="var(--fill-0, white)"/>
<path id="Vector_28" d="M52.9515 20.9037L52.8303 20.8363C52.8148 20.829 52.8017 20.8176 52.7922 20.8033C52.7827 20.7891 52.7773 20.7725 52.7765 20.7554C52.7769 20.739 52.7823 20.7232 52.7919 20.7099C52.8015 20.6967 52.8149 20.6867 52.8303 20.6812L54.0758 19.9596L54.9308 20.4452C54.9481 20.4544 54.9628 20.4679 54.9734 20.4844C54.984 20.501 54.9902 20.52 54.9914 20.5396L54.9173 21.0858L55.5905 21.4567C55.6188 21.4765 55.6401 21.5049 55.6511 21.5377C55.6497 21.5555 55.6433 21.5726 55.6326 21.5869C55.6218 21.6013 55.6072 21.6122 55.5905 21.6186C55.5495 21.6417 55.503 21.6534 55.4559 21.6523C55.4063 21.6573 55.3565 21.6454 55.3145 21.6186L54.6413 21.2207C54.5874 21.187 54.5672 21.1533 54.5672 21.1196L54.648 20.5733L54.1296 20.2766L53.3016 20.7554C53.3554 20.8161 53.3554 20.8633 53.3016 20.9037C53.259 20.9292 53.2097 20.941 53.1602 20.9375C53.1254 20.9496 53.088 20.953 53.0516 20.9471C53.0151 20.9412 52.9808 20.9263 52.9515 20.9037V20.9037Z" fill="var(--fill-0, white)"/>
<path id="Vector_29" d="M56.5527 20.6863L55.8795 20.2951C55.847 20.2833 55.819 20.2618 55.7991 20.2334C55.7793 20.2051 55.7686 20.1713 55.7686 20.1367C55.7686 20.102 55.7793 20.0683 55.7991 20.0399C55.819 20.0116 55.847 19.99 55.8795 19.9782L55.0649 19.5061C55.0495 19.4988 55.0363 19.4874 55.0268 19.4731C55.0173 19.4589 55.0119 19.4423 55.0111 19.4252C55.0111 19.4252 55.0111 19.3712 55.0649 19.3443L55.6237 19.0206C55.6702 19.0096 55.7186 19.0096 55.7651 19.0206C55.8092 19.0088 55.8556 19.0088 55.8997 19.0206L56.7143 19.4926C56.7999 19.4499 56.8947 19.429 56.9903 19.4319C57.0862 19.4254 57.182 19.4465 57.2664 19.4926L57.9396 19.8905C57.9721 19.9023 58.0001 19.9239 58.02 19.9522C58.0398 19.9806 58.0505 20.0144 58.0505 20.049C58.0505 20.0836 58.0398 20.1174 58.02 20.1458C58.0001 20.1741 57.9721 20.1957 57.9396 20.2075L57.1048 20.6863C57.0189 20.7353 56.9208 20.7587 56.822 20.7537C56.7278 20.7565 56.6346 20.7332 56.5527 20.6863V20.6863ZM56.1555 20.14L56.8288 20.5312L57.6636 20.0456L56.9903 19.6545L56.1555 20.14ZM55.4823 19.4252L56.1555 19.8163L56.4383 19.6545L55.7651 19.2633L55.4823 19.4252Z" fill="var(--fill-0, white)"/>
<path id="Vector_30" d="M60.0541 18.989L59.9128 19.0699C59.8686 19.0813 59.8223 19.0813 59.7781 19.0699C59.732 19.084 59.6828 19.084 59.6367 19.0699C59.6224 19.0612 59.6101 19.0494 59.6008 19.0354C59.5915 19.0215 59.5854 19.0056 59.5829 18.989C59.5837 18.9719 59.5891 18.9553 59.5986 18.941C59.6081 18.9268 59.6213 18.9154 59.6367 18.9081L58.7279 18.382L57.7584 18.9418C57.7119 18.9527 57.6636 18.9527 57.6171 18.9418C57.5729 18.9532 57.5266 18.9532 57.4824 18.9418L56.7621 18.5237C56.7466 18.5163 56.7334 18.5049 56.7239 18.4907C56.7144 18.4764 56.709 18.4598 56.7082 18.4427C56.7082 18.409 56.7082 18.3888 56.7621 18.3618L57.8662 17.7279C57.9087 17.7024 57.9581 17.6906 58.0075 17.6942C58.0549 17.6897 58.1025 17.7016 58.1422 17.7279L60.0541 18.8271C60.0878 18.8271 60.108 18.8743 60.108 18.9081C60.1072 18.9252 60.1017 18.9417 60.0923 18.956C60.0828 18.9702 60.0696 18.9817 60.0541 18.989V18.989ZM58.4451 18.2067L58.0143 17.9572L57.1795 18.4427L57.6103 18.6922L58.4451 18.2067Z" fill="var(--fill-0, white)"/>
<path id="Vector_31" d="M61.5675 17.9765L60.9885 17.6393L60.1605 18.1181L58.814 17.3493C58.7981 17.3426 58.7844 17.3314 58.7748 17.317C58.7653 17.3026 58.7601 17.2857 58.7601 17.2684C58.7601 17.251 58.7653 17.2341 58.7748 17.2197C58.7844 17.2053 58.7981 17.1941 58.814 17.1874C58.8575 17.1643 58.9062 17.1527 58.9554 17.1537C59.0045 17.1536 59.053 17.1651 59.0968 17.1874L60.147 17.8011L60.6923 17.4774L59.8844 17.0121C59.8677 17.0058 59.8531 16.9948 59.8424 16.9805C59.8317 16.9661 59.8252 16.949 59.8238 16.9312C59.8246 16.9141 59.8301 16.8975 59.8396 16.8832C59.849 16.869 59.8622 16.8576 59.8777 16.8502C59.9216 16.8283 59.97 16.8169 60.0191 16.8169C60.0682 16.8169 60.1166 16.8283 60.1605 16.8502L60.9683 17.3223C61.0121 17.3 61.0606 17.2885 61.1097 17.2886C61.1567 17.2885 61.2029 17.3 61.2443 17.3223C61.2611 17.3287 61.2756 17.3396 61.2864 17.354C61.2971 17.3683 61.3035 17.3854 61.3049 17.4032C61.3049 17.4032 61.3049 17.4572 61.2443 17.4842L61.8233 17.8146C61.8637 17.8146 61.8839 17.8618 61.8839 17.8955C61.8831 17.9127 61.8777 17.9292 61.8682 17.9435C61.8587 17.9577 61.8455 17.9691 61.8301 17.9765C61.7836 17.9874 61.7352 17.9874 61.6887 17.9765C61.6488 17.9859 61.6073 17.9859 61.5675 17.9765V17.9765Z" fill="var(--fill-0, white)"/>
<path id="Vector_32" opacity="0.3" d="M39.535 34.9429L28.1306 41.5383L26.8851 40.8167L38.2895 34.2146L39.535 34.9429Z" fill="var(--fill-0, white)"/>
</g>
</g>
</svg>
